<?xml version="1.0" encoding="UTF-8"?>
<!--Generator: Apple Native CoreSVG 149-->
<!DOCTYPE svg
PUBLIC "-//W3C//DTD SVG 1.1//EN"
       "http://www.w3.org/Graphics/SVG/1.1/DTD/svg11.dtd">
<svg version="1.1" xmlns="http://www.w3.org/2000/svg" xmlns:xlink="http://www.w3.org/1999/xlink" width="3300" height="2200">
 <!--glyph: "uni10093B.medium", point size: 100.0, font version: "17.0d9e1", template writer version: "59"-->
 <g id="Notes">
  <rect height="2200" id="artboard" style="fill:white;opacity:1" width="3300" x="0" y="0"/>
  <line style="fill:none;stroke:black;opacity:1;stroke-width:0.5;" x1="263" x2="3036" y1="292" y2="292"/>
  <text style="stroke:none;fill:black;font-family:sans-serif;font-size:13;font-weight:bold;" transform="matrix(1 0 0 1 263 322)">Weight/Scale Variations</text>
  <text style="stroke:none;fill:black;font-family:sans-serif;font-size:13;text-anchor:middle;" transform="matrix(1 0 0 1 559.711 322)">Ultralight</text>
  <text style="stroke:none;fill:black;font-family:sans-serif;font-size:13;text-anchor:middle;" transform="matrix(1 0 0 1 856.422 322)">Thin</text>
  <text style="stroke:none;fill:black;font-family:sans-serif;font-size:13;text-anchor:middle;" transform="matrix(1 0 0 1 1153.13 322)">Light</text>
  <text style="stroke:none;fill:black;font-family:sans-serif;font-size:13;text-anchor:middle;" transform="matrix(1 0 0 1 1449.84 322)">Regular</text>
  <text style="stroke:none;fill:black;font-family:sans-serif;font-size:13;text-anchor:middle;" transform="matrix(1 0 0 1 1746.56 322)">Medium</text>
  <text style="stroke:none;fill:black;font-family:sans-serif;font-size:13;text-anchor:middle;" transform="matrix(1 0 0 1 2043.27 322)">Semibold</text>
  <text style="stroke:none;fill:black;font-family:sans-serif;font-size:13;text-anchor:middle;" transform="matrix(1 0 0 1 2339.98 322)">Bold</text>
  <text style="stroke:none;fill:black;font-family:sans-serif;font-size:13;text-anchor:middle;" transform="matrix(1 0 0 1 2636.69 322)">Heavy</text>
  <text style="stroke:none;fill:black;font-family:sans-serif;font-size:13;text-anchor:middle;" transform="matrix(1 0 0 1 2933.4 322)">Black</text>
  <line style="fill:none;stroke:black;opacity:1;stroke-width:0.5;" x1="263" x2="3036" y1="1903" y2="1903"/>
  <g transform="matrix(1 0 0 1 263 1933)">
   <path d="M9.24805 0.830078Q10.8691 0.830078 12.2949 0.214844Q13.7207-0.400391 14.8096-1.49414Q15.8984-2.58789 16.5186-4.01367Q17.1387-5.43945 17.1387-7.05078Q17.1387-8.66211 16.5186-10.0879Q15.8984-11.5137 14.8047-12.6074Q13.7109-13.7012 12.2852-14.3164Q10.8594-14.9316 9.23828-14.9316Q7.62695-14.9316 6.20117-14.3164Q4.77539-13.7012 3.69141-12.6074Q2.60742-11.5137 1.9873-10.0879Q1.36719-8.66211 1.36719-7.05078Q1.36719-5.43945 1.9873-4.01367Q2.60742-2.58789 3.69629-1.49414Q4.78516-0.400391 6.21094 0.214844Q7.63672 0.830078 9.24805 0.830078ZM9.24805-0.654297Q7.91992-0.654297 6.7627-1.14746Q5.60547-1.64062 4.73145-2.51953Q3.85742-3.39844 3.36426-4.56055Q2.87109-5.72266 2.87109-7.05078Q2.87109-8.37891 3.35938-9.54102Q3.84766-10.7031 4.72168-11.582Q5.5957-12.4609 6.75293-12.9541Q7.91016-13.4473 9.23828-13.4473Q10.5762-13.4473 11.7334-12.9541Q12.8906-12.4609 13.7695-11.582Q14.6484-10.7031 15.1465-9.54102Q15.6445-8.37891 15.6445-7.05078Q15.6445-5.72266 15.1514-4.56055Q14.6582-3.39844 13.7842-2.51953Q12.9102-1.64062 11.748-1.14746Q10.5859-0.654297 9.24805-0.654297ZM5.83984-7.04102Q5.83984-6.71875 6.04492-6.51855Q6.25-6.31836 6.5918-6.31836L8.50586-6.31836L8.50586-4.39453Q8.50586-4.0625 8.70605-3.85742Q8.90625-3.65234 9.22852-3.65234Q9.56055-3.65234 9.76562-3.85742Q9.9707-4.0625 9.9707-4.39453L9.9707-6.31836L11.8945-6.31836Q12.2266-6.31836 12.4316-6.51855Q12.6367-6.71875 12.6367-7.04102Q12.6367-7.37305 12.4316-7.57812Q12.2266-7.7832 11.8945-7.7832L9.9707-7.7832L9.9707-9.69727Q9.9707-10.0391 9.76562-10.2441Q9.56055-10.4492 9.22852-10.4492Q8.90625-10.4492 8.70605-10.2441Q8.50586-10.0391 8.50586-9.69727L8.50586-7.7832L6.5918-7.7832Q6.25-7.7832 6.04492-7.57812Q5.83984-7.37305 5.83984-7.04102Z"/>
  </g>
  <g transform="matrix(1 0 0 1 281.867 1933)">
   <path d="M11.709 2.91016Q13.75 2.91016 15.5518 2.12891Q17.3535 1.34766 18.7305-0.0292969Q20.1074-1.40625 20.8887-3.20801Q21.6699-5.00977 21.6699-7.05078Q21.6699-9.0918 20.8887-10.8936Q20.1074-12.6953 18.7305-14.0723Q17.3535-15.4492 15.5469-16.2305Q13.7402-17.0117 11.6992-17.0117Q9.6582-17.0117 7.85645-16.2305Q6.05469-15.4492 4.68262-14.0723Q3.31055-12.6953 2.5293-10.8936Q1.74805-9.0918 1.74805-7.05078Q1.74805-5.00977 2.5293-3.20801Q3.31055-1.40625 4.6875-0.0292969Q6.06445 1.34766 7.86621 2.12891Q9.66797 2.91016 11.709 2.91016ZM11.709 1.25Q9.98047 1.25 8.47656 0.605469Q6.97266-0.0390625 5.83496-1.17676Q4.69727-2.31445 4.05762-3.81836Q3.41797-5.32227 3.41797-7.05078Q3.41797-8.7793 4.05762-10.2832Q4.69727-11.7871 5.83008-12.9297Q6.96289-14.0723 8.4668-14.7119Q9.9707-15.3516 11.6992-15.3516Q13.4277-15.3516 14.9316-14.7119Q16.4355-14.0723 17.5781-12.9297Q18.7207-11.7871 19.3652-10.2832Q20.0098-8.7793 20.0098-7.05078Q20.0098-5.32227 19.3701-3.81836Q18.7305-2.31445 17.5928-1.17676Q16.4551-0.0390625 14.9463 0.605469Q13.4375 1.25 11.709 1.25ZM7.39258-7.04102Q7.39258-6.68945 7.62695-6.46484Q7.86133-6.24023 8.23242-6.24023L10.8789-6.24023L10.8789-3.57422Q10.8789-3.21289 11.1035-2.9834Q11.3281-2.75391 11.6797-2.75391Q12.0508-2.75391 12.2852-2.9834Q12.5195-3.21289 12.5195-3.57422L12.5195-6.24023L15.1758-6.24023Q15.5371-6.24023 15.7715-6.46484Q16.0059-6.68945 16.0059-7.04102Q16.0059-7.41211 15.7715-7.6416Q15.5371-7.87109 15.1758-7.87109L12.5195-7.87109L12.5195-10.5176Q12.5195-10.8984 12.2852-11.1279Q12.0508-11.3574 11.6797-11.3574Q11.3281-11.3574 11.1035-11.1279Q10.8789-10.8984 10.8789-10.5176L10.8789-7.87109L8.23242-7.87109Q7.85156-7.87109 7.62207-7.6416Q7.39258-7.41211 7.39258-7.04102Z"/>
  </g>
  <g transform="matrix(1 0 0 1 305.646 1933)">
   <path d="M14.9707 5.66406Q17.0605 5.66406 18.96 5.01465Q20.8594 4.36523 22.4512 3.19336Q24.043 2.02148 25.2197 0.429688Q26.3965-1.16211 27.0459-3.06641Q27.6953-4.9707 27.6953-7.05078Q27.6953-9.14062 27.0459-11.04Q26.3965-12.9395 25.2197-14.5312Q24.043-16.123 22.4512-17.2998Q20.8594-18.4766 18.9551-19.126Q17.0508-19.7754 14.9609-19.7754Q12.8711-19.7754 10.9717-19.126Q9.07227-18.4766 7.48535-17.2998Q5.89844-16.123 4.72168-14.5312Q3.54492-12.9395 2.90039-11.04Q2.25586-9.14062 2.25586-7.05078Q2.25586-4.9707 2.90527-3.06641Q3.55469-1.16211 4.72656 0.429688Q5.89844 2.02148 7.49023 3.19336Q9.08203 4.36523 10.9814 5.01465Q12.8809 5.66406 14.9707 5.66406ZM14.9707 3.84766Q13.1641 3.84766 11.5283 3.2959Q9.89258 2.74414 8.53516 1.74805Q7.17773 0.751953 6.17676-0.610352Q5.17578-1.97266 4.62891-3.6084Q4.08203-5.24414 4.08203-7.05078Q4.08203-8.86719 4.62891-10.5029Q5.17578-12.1387 6.17188-13.501Q7.16797-14.8633 8.52539-15.8594Q9.88281-16.8555 11.5186-17.4023Q13.1543-17.9492 14.9609-17.9492Q16.7773-17.9492 18.4131-17.4023Q20.0488-16.8555 21.4111-15.8594Q22.7734-14.8633 23.7695-13.501Q24.7656-12.1387 25.3174-10.5029Q25.8691-8.86719 25.8691-7.05078Q25.8789-5.24414 25.332-3.6084Q24.7852-1.97266 23.7842-0.610352Q22.7832 0.751953 21.4209 1.74805Q20.0586 2.74414 18.4229 3.2959Q16.7871 3.84766 14.9707 3.84766ZM9.45312-7.04102Q9.45312-6.66016 9.71191-6.41113Q9.9707-6.16211 10.3711-6.16211L14.0625-6.16211L14.0625-2.46094Q14.0625-2.06055 14.3115-1.80664Q14.5605-1.55273 14.9414-1.55273Q15.3516-1.55273 15.6055-1.80664Q15.8594-2.06055 15.8594-2.46094L15.8594-6.16211L19.5605-6.16211Q19.9609-6.16211 20.2148-6.41113Q20.4688-6.66016 20.4688-7.04102Q20.4688-7.45117 20.2148-7.70508Q19.9609-7.95898 19.5605-7.95898L15.8594-7.95898L15.8594-11.6504Q15.8594-12.0605 15.6055-12.3145Q15.3516-12.5684 14.9414-12.5684Q14.5605-12.5684 14.3115-12.3096Q14.0625-12.0508 14.0625-11.6504L14.0625-7.95898L10.3711-7.95898Q9.96094-7.95898 9.70703-7.70508Q9.45312-7.45117 9.45312-7.04102Z"/>
  </g>
  <text style="stroke:none;fill:black;font-family:sans-serif;font-size:13;font-weight:bold;" transform="matrix(1 0 0 1 263 1953)">Design Variations</text>
  <text style="stroke:none;fill:black;font-family:sans-serif;font-size:13;" transform="matrix(1 0 0 1 263 1971)">Symbols are supported in up to nine weights and three scales.</text>
  <text style="stroke:none;fill:black;font-family:sans-serif;font-size:13;" transform="matrix(1 0 0 1 263 1989)">For optimal layout with text and other symbols, vertically align</text>
  <text style="stroke:none;fill:black;font-family:sans-serif;font-size:13;" transform="matrix(1 0 0 1 263 2007)">symbols with the adjacent text.</text>
  <line style="fill:none;stroke:#00AEEF;stroke-width:0.5;opacity:1.0;" x1="776" x2="776" y1="1919" y2="1933"/>
  <g transform="matrix(1 0 0 1 776 1933)">
   <path d="M3.31055 0.15625Q3.70117 0.15625 3.91602-0.00976562Q4.13086-0.175781 4.26758-0.585938L5.52734-4.0332L11.2891-4.0332L12.5488-0.585938Q12.6855-0.175781 12.9004-0.00976562Q13.1152 0.15625 13.4961 0.15625Q13.8867 0.15625 14.1162-0.0585938Q14.3457-0.273438 14.3457-0.644531Q14.3457-0.869141 14.2383-1.17188L9.6582-13.3691Q9.48242-13.8184 9.17969-14.043Q8.87695-14.2676 8.4082-14.2676Q7.5-14.2676 7.17773-13.3789L2.59766-1.16211Q2.49023-0.859375 2.49023-0.634766Q2.49023-0.263672 2.70996-0.0537109Q2.92969 0.15625 3.31055 0.15625ZM6.00586-5.51758L8.37891-12.0898L8.42773-12.0898L10.8008-5.51758Z"/>
  </g>
  <line style="fill:none;stroke:#00AEEF;stroke-width:0.5;opacity:1.0;" x1="793.197" x2="793.197" y1="1919" y2="1933"/>
  <text style="stroke:none;fill:black;font-family:sans-serif;font-size:13;font-weight:bold;" transform="matrix(1 0 0 1 776 1953)">Margins</text>
  <text style="stroke:none;fill:black;font-family:sans-serif;font-size:13;" transform="matrix(1 0 0 1 776 1971)">Leading and trailing margins on the left and right side of each symbol</text>
  <text style="stroke:none;fill:black;font-family:sans-serif;font-size:13;" transform="matrix(1 0 0 1 776 1989)">can be adjusted by modifying the x-location of the margin guidelines.</text>
  <text style="stroke:none;fill:black;font-family:sans-serif;font-size:13;" transform="matrix(1 0 0 1 776 2007)">Modifications are automatically applied proportionally to all</text>
  <text style="stroke:none;fill:black;font-family:sans-serif;font-size:13;" transform="matrix(1 0 0 1 776 2025)">scales and weights.</text>
  <g transform="matrix(1 0 0 1 1289 1933)">
   <path d="M2.8418 1.86523L4.54102 3.57422Q5.18555 4.22852 5.90332 4.17969Q6.62109 4.13086 7.31445 3.35938L18.0078-8.42773L17.041-9.4043L6.42578 2.27539Q6.16211 2.57812 5.89355 2.61719Q5.625 2.65625 5.27344 2.30469L4.10156 1.14258Q3.75 0.791016 3.79395 0.522461Q3.83789 0.253906 4.14062-0.0195312L15.6152-10.8203L14.6387-11.7871L3.04688-0.898438Q2.30469-0.214844 2.25098 0.498047Q2.19727 1.21094 2.8418 1.86523ZM9.25781-16.3281Q8.94531-16.0254 8.90625-15.6348Q8.86719-15.2441 9.04297-14.9512Q9.21875-14.6777 9.55566-14.541Q9.89258-14.4043 10.3809-14.5215Q11.4746-14.7754 12.5977-14.7314Q13.7207-14.6875 14.7949-13.9844L14.209-12.5293Q13.9551-11.9043 14.0674-11.4404Q14.1797-10.9766 14.5801-10.5664L16.875-8.25195Q17.2363-7.88086 17.5781-7.82227Q17.9199-7.76367 18.3398-7.8418L19.4043-8.03711L20.0684-7.36328L20.0293-6.80664Q20-6.43555 20.1221-6.12305Q20.2441-5.81055 20.6055-5.44922L21.3672-4.70703Q21.7285-4.3457 22.1533-4.33105Q22.5781-4.31641 22.9297-4.66797L25.8398-7.58789Q26.1914-7.93945 26.1816-8.35449Q26.1719-8.76953 25.8105-9.13086L25.0391-9.89258Q24.6875-10.2539 24.3799-10.3857Q24.0723-10.5176 23.7109-10.4883L23.1348-10.4395L22.4902-11.0742L22.7344-12.1973Q22.832-12.6172 22.6953-12.9834Q22.5586-13.3496 22.1191-13.7891L19.9219-15.9766Q18.6719-17.2168 17.2607-17.8369Q15.8496-18.457 14.4189-18.4814Q12.9883-18.5059 11.665-17.959Q10.3418-17.4121 9.25781-16.3281ZM10.752-15.957Q11.6602-16.6211 12.7002-16.9043Q13.7402-17.1875 14.8047-17.085Q15.8691-16.9824 16.8701-16.5137Q17.8711-16.0449 18.7012-15.2051L21.1328-12.793Q21.3086-12.6172 21.3525-12.4512Q21.3965-12.2852 21.3379-12.0312L21.0156-10.5469L22.5195-9.0625L23.5059-9.12109Q23.6914-9.13086 23.7891-9.09668Q23.8867-9.0625 24.0332-8.91602L24.6094-8.33984L22.168-5.89844L21.5918-6.47461Q21.4453-6.62109 21.4062-6.71875Q21.3672-6.81641 21.377-7.01172L21.4453-7.98828L19.9512-9.47266L18.4277-9.21875Q18.1836-9.16992 18.042-9.2041Q17.9004-9.23828 17.7148-9.41406L15.7129-11.416Q15.5176-11.5918 15.4932-11.7529Q15.4688-11.9141 15.5859-12.1875L16.4648-14.2773Q15.293-15.3711 13.8281-15.791Q12.3633-16.2109 10.8398-15.7617Q10.7227-15.7324 10.6885-15.8057Q10.6543-15.8789 10.752-15.957Z"/>
  </g>
  <text style="stroke:none;fill:black;font-family:sans-serif;font-size:13;font-weight:bold;" transform="matrix(1 0 0 1 1289 1953)">Exporting</text>
  <text style="stroke:none;fill:black;font-family:sans-serif;font-size:13;" transform="matrix(1 0 0 1 1289 1971)">Symbols should be outlined when exporting to ensure the</text>
  <text style="stroke:none;fill:black;font-family:sans-serif;font-size:13;" transform="matrix(1 0 0 1 1289 1989)">design is preserved when submitting to Xcode.</text>
  <text id="template-version" style="stroke:none;fill:black;font-family:sans-serif;font-size:13;text-anchor:end;" transform="matrix(1 0 0 1 3036 1933)">Template v.3.0</text>
  <text style="stroke:none;fill:black;font-family:sans-serif;font-size:13;text-anchor:end;" transform="matrix(1 0 0 1 3036 1951)">Requires Xcode 13 or greater</text>
  <text id="descriptive-name" style="stroke:none;fill:black;font-family:sans-serif;font-size:13;text-anchor:end;" transform="matrix(1 0 0 1 3036 1969)">Generated from hand.point.down</text>
  <text style="stroke:none;fill:black;font-family:sans-serif;font-size:13;text-anchor:end;" transform="matrix(1 0 0 1 3036 1987)">Typeset at 100 points</text>
  <text style="stroke:none;fill:black;font-family:sans-serif;font-size:13;" transform="matrix(1 0 0 1 263 726)">Small</text>
  <text style="stroke:none;fill:black;font-family:sans-serif;font-size:13;" transform="matrix(1 0 0 1 263 1156)">Medium</text>
  <text style="stroke:none;fill:black;font-family:sans-serif;font-size:13;" transform="matrix(1 0 0 1 263 1586)">Large</text>
 </g>
 <g id="Guides">
  <g id="H-reference" style="fill:#27AAE1;stroke:none;" transform="matrix(1 0 0 1 339 696)">
   <path d="M0.993347 0L3.6377 0L29.3282-67.1326L30.0301-67.1326L30.0301-70.459L28.1227-70.459ZM11.6882-24.4797L46.9818-24.4797L46.2311-26.7288L12.4382-26.7288ZM55.1193 0L57.7637 0L30.6381-70.459L29.4327-70.459L29.4327-67.1326Z"/>
  </g>
  <line id="Baseline-S" style="fill:none;stroke:#27AAE1;opacity:1;stroke-width:0.5;" x1="263" x2="3036" y1="696" y2="696"/>
  <line id="Capline-S" style="fill:none;stroke:#27AAE1;opacity:1;stroke-width:0.5;" x1="263" x2="3036" y1="625.541" y2="625.541"/>
  <g id="H-reference" style="fill:#27AAE1;stroke:none;" transform="matrix(1 0 0 1 339 1126)">
   <path d="M0.993347 0L3.6377 0L29.3282-67.1326L30.0301-67.1326L30.0301-70.459L28.1227-70.459ZM11.6882-24.4797L46.9818-24.4797L46.2311-26.7288L12.4382-26.7288ZM55.1193 0L57.7637 0L30.6381-70.459L29.4327-70.459L29.4327-67.1326Z"/>
  </g>
  <line id="Baseline-M" style="fill:none;stroke:#27AAE1;opacity:1;stroke-width:0.5;" x1="263" x2="3036" y1="1126" y2="1126"/>
  <line id="Capline-M" style="fill:none;stroke:#27AAE1;opacity:1;stroke-width:0.5;" x1="263" x2="3036" y1="1055.54" y2="1055.54"/>
  <g id="H-reference" style="fill:#27AAE1;stroke:none;" transform="matrix(1 0 0 1 339 1556)">
   <path d="M0.993347 0L3.6377 0L29.3282-67.1326L30.0301-67.1326L30.0301-70.459L28.1227-70.459ZM11.6882-24.4797L46.9818-24.4797L46.2311-26.7288L12.4382-26.7288ZM55.1193 0L57.7637 0L30.6381-70.459L29.4327-70.459L29.4327-67.1326Z"/>
  </g>
  <line id="Baseline-L" style="fill:none;stroke:#27AAE1;opacity:1;stroke-width:0.5;" x1="263" x2="3036" y1="1556" y2="1556"/>
  <line id="Capline-L" style="fill:none;stroke:#27AAE1;opacity:1;stroke-width:0.5;" x1="263" x2="3036" y1="1485.54" y2="1485.54"/>
  <line id="left-margin-Regular-M" style="fill:none;stroke:#00AEEF;stroke-width:0.5;opacity:1.0;" x1="1401.24" x2="1401.24" y1="1030.79" y2="1150.12"/>
  <line id="right-margin-Regular-M" style="fill:none;stroke:#00AEEF;stroke-width:0.5;opacity:1.0;" x1="1498.45" x2="1498.45" y1="1030.79" y2="1150.12"/>
 </g>
 <g id="Symbols">
  <g id="Black-L" transform="matrix(1 0 0 1 2861.38 1556)">
   <path d="M64.4043-109.521Q51.8066-109.473 41.9678-105.762Q32.1289-102.051 25.2686-94.9707Q18.4082-87.8906 14.8438-77.6855Q11.2793-67.4805 11.2793-54.4922L11.2793-34.8633Q11.2793-22.6562 17.334-15.3076Q23.3887-7.95898 33.8379-7.4707Q35.5957-3.71094 39.2578-1.5625Q42.9199 0.585938 47.5586 0.585938Q49.7559 0.585938 51.6113 0.0976562Q53.5645 4.19922 56.9824 6.44531Q60.4004 8.69141 64.8926 8.69141Q65.2344 8.69141 65.5518 8.64258Q65.8691 8.59375 66.2109 8.49609L66.2109 20.8984Q66.2109 26.416 68.457 30.5908Q70.7031 34.7656 74.6826 37.085Q78.6621 39.4043 83.9844 39.4043Q89.4531 39.4043 93.6035 37.085Q97.7539 34.7656 100.073 30.5908Q102.393 26.416 102.393 20.8984L102.393-20.0195Q102.393-20.7031 102.832-20.7031Q103.027-20.7031 103.223-20.4102L104.346-18.1641Q106.494-15.1855 109.644-13.5742Q112.793-11.9629 116.553-11.9629Q123.584-11.9629 128.174-16.3086Q132.764-20.6543 132.764-27.7832Q132.764-29.9316 132.373-32.2021Q131.982-34.4727 131.201-36.4746L119.385-68.9453Q112.158-88.8672 98.0957-99.2188Q84.0332-109.57 64.4043-109.521ZM63.916-91.6504Q73.1934-91.6504 80.5176-88.5254Q87.8418-85.4004 93.4082-78.9551Q98.9746-72.5098 102.979-62.6465L115.82-31.1035Q115.967-30.7129 116.064-30.3955Q116.162-30.0781 116.162-29.6875Q116.162-28.9062 115.625-28.2959Q115.088-27.6855 114.014-27.6855Q112.744-27.6855 112.109-29.1016L101.807-48.9258Q100.488-51.5625 98.4375-52.6855Q96.3867-53.8086 94.1895-53.8086Q91.1621-53.8086 88.8916-51.709Q86.6211-49.6094 86.6211-45.8008L86.5723 21.875Q86.5723 22.8516 85.9375 23.5107Q85.3027 24.1699 84.3262 24.1699Q83.3496 24.1699 82.666 23.5107Q81.9824 22.8516 81.9824 21.875L81.9824-23.5352Q81.9824-26.2695 79.9805-28.2227Q77.9785-30.1758 75.2441-30.1758Q72.5098-30.1758 70.5322-28.2227Q68.5547-26.2695 68.5547-23.5352L68.5547-8.25195Q67.4805-8.00781 66.4551-8.00781Q65.3809-8.00781 64.6484-8.71582Q63.916-9.42383 63.916-10.5469L63.916-26.416Q63.916-29.1016 61.9873-30.9814Q60.0586-32.8613 57.373-32.8613Q54.6875-32.8613 52.7588-30.9814Q50.8301-29.1016 50.8301-26.416L50.8301-16.3574Q49.7559-16.1133 48.7305-16.1133Q47.6562-16.1133 46.9238-16.8213Q46.1914-17.5293 46.1914-18.6523L46.1914-28.9551Q46.1914-31.7383 44.1895-33.6914Q42.1875-35.6445 39.4043-35.6445Q36.6699-35.6445 34.6924-33.6914Q32.7148-31.7383 32.7148-28.9551L32.7148-25.4883Q30.2734-25.4883 29.0527-27.3193Q27.832-29.1504 27.832-32.959L27.832-53.125Q27.832-65.2832 32.0801-73.9014Q36.3281-82.5195 44.4092-87.085Q52.4902-91.6504 63.916-91.6504Z"/>
  </g>
  <g id="Heavy-L" transform="matrix(1 0 0 1 2567.13 1556)">
   <path d="M62.1109-107.251Q50.2159-107.214 40.8211-103.653Q31.4262-100.092 24.8192-93.2766Q18.2121-86.4616 14.7457-76.6426Q11.2793-66.8236 11.2793-54.3076L11.2793-36.2Q11.2793-24.3042 17.017-17.2783Q22.7547-10.2524 32.766-9.85641Q34.3513-6.18896 37.7827-4.08058Q41.214-1.9722 45.6802-1.9722Q48.0042-1.9722 50.1015-2.57568Q51.8585 1.42212 55.1498 3.63922Q58.4412 5.85632 62.8296 5.85632Q63.356 5.85632 63.8809 5.77888Q64.4058 5.70145 64.9429 5.53436L64.9429 20.0806Q64.9429 25.1945 67.0277 29.0466Q69.1124 32.8987 72.7924 35.0338Q76.4725 37.1689 81.3568 37.1689Q86.3647 37.1689 90.181 35.0338Q93.9972 32.8987 96.1376 29.0466Q98.278 25.1945 98.278 20.0806L98.278-23.9494Q98.278-24.6101 98.7289-24.6101Q98.9594-24.6101 99.1547-24.2706L101.188-19.6854Q103.187-16.5573 106.209-14.8823Q109.232-13.2072 112.865-13.2072Q119.274-13.2072 123.558-17.1669Q127.843-21.1266 127.843-27.7489Q127.843-29.7012 127.481-31.8218Q127.119-33.9424 126.395-35.8292L114.706-68.1389Q107.767-87.3802 94.3504-97.3343Q80.9334-107.288 62.1109-107.251ZM61.6806-91.8465Q70.8542-91.8465 78.1841-88.7444Q85.5141-85.6422 91.0919-79.1912Q96.6698-72.7402 100.593-62.7731L113.078-31.1844Q113.247-30.7129 113.356-30.3032Q113.465-29.8935 113.465-29.3991Q113.465-28.376 112.761-27.6043Q112.057-26.8326 110.752-26.8326Q109.056-26.8326 108.202-28.8017L98.349-48.4993Q97.1115-51.0208 95.2335-52.0805Q93.3556-53.1403 91.3086-53.1403Q88.5574-53.1403 86.5349-51.2306Q84.5123-49.321 84.5123-45.9274L84.4749 20.9297Q84.4749 22.2061 83.6731 23.0438Q82.8712 23.8815 81.6177 23.8815Q80.365 23.8815 79.5372 23.0438Q78.7094 22.2061 78.7094 20.9297L78.7094-24.5262Q78.7094-26.9608 76.9379-28.6949Q75.1663-30.4291 72.7318-30.4291Q70.2972-30.4291 68.5501-28.6949Q66.803-26.9608 66.803-24.5262L66.803-8.94318Q65.5098-8.5495 64.2311-8.5495Q62.7991-8.5495 61.8996-9.4593Q61.0001-10.3691 61.0001-11.8835L61.0001-27.2919Q61.0001-29.7356 59.2789-31.3908Q57.5577-33.046 55.172-33.046Q52.7977-33.046 51.0822-31.3908Q49.3668-29.7356 49.3668-27.2919L49.3668-16.7839Q48.0614-16.378 46.7941-16.378Q45.3629-16.378 44.4633-17.2935Q43.5638-18.2091 43.5638-19.7128L43.5638-29.7966Q43.5638-32.3143 41.7809-34.0313Q39.9979-35.7483 37.5374-35.7483Q35.1372-35.7483 33.3786-34.0313Q31.62-32.3143 31.62-29.7966L31.62-25.3731Q28.6598-25.3731 27.1454-27.7863Q25.631-30.1994 25.631-34.9754L25.631-53.0792Q25.631-65.3755 29.9194-74.0456Q34.2079-82.7156 42.2829-87.281Q50.3578-91.8465 61.6806-91.8465Z"/>
  </g>
  <g id="Bold-L" transform="matrix(1 0 0 1 2273.17 1556)">
   <path d="M59.5459-104.712Q48.4375-104.688 39.5386-101.294Q30.6396-97.9004 24.3164-91.3818Q17.9932-84.8633 14.6362-75.4761Q11.2793-66.0889 11.2793-54.1016L11.2793-37.6953Q11.2793-26.1475 16.6626-19.4824Q22.0459-12.8174 31.5674-12.5244Q32.959-8.95996 36.1328-6.89697Q39.3066-4.83398 43.5791-4.83398Q46.0449-4.83398 48.4131-5.56641Q49.9512-1.68457 53.1006 0.500488Q56.25 2.68555 60.5225 2.68555Q61.2549 2.68555 62.0117 2.57568Q62.7686 2.46582 63.5254 2.22168L63.5254 19.165Q63.5254 23.8281 65.4297 27.3193Q67.334 30.8105 70.6787 32.7393Q74.0234 34.668 78.418 34.668Q82.9102 34.668 86.3525 32.7393Q89.7949 30.8105 91.7358 27.3193Q93.6768 23.8281 93.6768 19.165L93.6768-28.3447Q93.6768-28.9795 94.1406-28.9795Q94.4092-28.9795 94.6045-28.5889L97.6562-21.3867Q99.4873-18.0908 102.368-16.3452Q105.249-14.5996 108.74-14.5996Q114.453-14.5996 118.396-18.1274Q122.339-21.6553 122.339-27.71Q122.339-29.4434 122.009-31.3965Q121.68-33.3496 121.021-35.1074L109.473-67.2363Q102.856-85.7178 90.1611-95.2271Q77.4658-104.736 59.5459-104.712ZM59.1797-92.0654Q68.2373-92.0654 75.5737-88.9893Q82.9102-85.9131 88.501-79.4556Q94.0918-72.998 97.9248-62.915L110.01-31.2744Q110.205-30.7129 110.327-30.2002Q110.449-29.6875 110.449-29.0771Q110.449-27.7832 109.558-26.8311Q108.667-25.8789 107.104-25.8789Q104.932-25.8789 103.833-28.4668L94.4824-48.0225Q93.335-50.415 91.6504-51.4038Q89.9658-52.3926 88.0859-52.3926Q85.6445-52.3926 83.8989-50.6958Q82.1533-48.999 82.1533-46.0693L82.1289 19.873Q82.1289 21.4844 81.1401 22.522Q80.1514 23.5596 78.5889 23.5596Q77.0264 23.5596 76.0376 22.522Q75.0488 21.4844 75.0488 19.873L75.0488-25.6348Q75.0488-27.7344 73.5352-29.2236Q72.0215-30.7129 69.9219-30.7129Q67.8223-30.7129 66.333-29.2236Q64.8438-27.7344 64.8438-25.6348L64.8438-9.7168Q63.3057-9.15527 61.7432-9.15527Q59.9121-9.15527 58.8257-10.2905Q57.7393-11.4258 57.7393-13.3789L57.7393-28.2715Q57.7393-30.4443 56.25-31.8481Q54.7607-33.252 52.71-33.252Q50.6836-33.252 49.2065-31.8481Q47.7295-30.4443 47.7295-28.2715L47.7295-17.2607Q46.167-16.6748 44.6289-16.6748Q42.7979-16.6748 41.7114-17.8223Q40.625-18.9697 40.625-20.8984L40.625-30.7373Q40.625-32.959 39.0869-34.4116Q37.5488-35.8643 35.4492-35.8643Q33.4229-35.8643 31.9092-34.4116Q30.3955-32.959 30.3955-30.7373L30.3955-25.2441Q26.8555-25.2441 25.0122-28.3081Q23.1689-31.3721 23.1689-37.2314L23.1689-53.0273Q23.1689-65.4785 27.5024-74.2065Q31.8359-82.9346 39.9048-87.5Q47.9736-92.0654 59.1797-92.0654Z"/>
  </g>
  <g id="Semibold-L" transform="matrix(1 0 0 1 1978.35 1556)">
   <path d="M57.7774-102.961Q47.2115-102.946 38.6543-99.6677Q30.0972-96.3898 23.9697-90.0757Q17.8421-83.7616 14.5607-74.6719Q11.2793-65.5823 11.2793-53.9597L11.2793-38.726Q11.2793-27.4185 16.4181-21.0022Q21.5569-14.5859 30.7411-14.3639Q31.9992-10.8704 34.9953-8.83865Q37.9913-6.80695 42.1303-6.80695Q44.6938-6.80695 47.2488-7.62787Q48.6359-3.82614 51.6876-1.66359Q54.7394 0.498962 58.9317 0.498962Q59.8061 0.498962 60.7231 0.366974Q61.6402 0.234985 62.5481-0.062561L62.5481 18.5341Q62.5481 22.8859 64.328 26.1284Q66.1079 29.3709 69.2215 31.1573Q72.3351 32.9437 76.3916 32.9437Q80.5283 32.9437 83.7132 31.1573Q86.898 29.3709 88.7012 26.1284Q90.5045 22.8859 90.5045 18.5341L90.5045-31.3751Q90.5045-31.9923 90.9767-31.9923Q91.272-31.9923 91.4673-31.5659L95.2209-22.5601Q96.9368-19.1483 99.72-17.3538Q102.503-15.5594 105.897-15.5594Q111.129-15.5594 114.837-18.7897Q118.544-22.02 118.544-27.6833Q118.544-29.2656 118.237-31.1031Q117.929-32.9407 117.315-34.61L105.865-66.6145Q99.4705-84.5711 87.273-93.774Q75.0755-102.977 57.7774-102.961ZM57.4554-92.2165Q66.433-92.2165 73.774-89.1582Q81.115-86.1 86.7146-79.6379Q92.3141-73.1758 96.0854-63.0127L107.895-31.337Q108.108-30.7129 108.239-30.1292Q108.369-29.5456 108.369-28.8551Q108.369-27.3743 107.349-26.2978Q106.329-25.2213 104.59-25.2213Q102.088-25.2213 100.82-28.2356L91.8159-47.6936Q90.731-49.9977 89.1796-50.9373Q87.6282-51.8768 85.8643-51.8768Q83.6357-51.8768 82.0812-50.3269Q80.5267-48.777 80.5267-46.167L80.5115 19.1444Q80.5115 20.9869 79.3938 22.1622Q78.2761 23.3376 76.5007 23.3376Q74.7246 23.3376 73.6248 22.1622Q72.525 20.9869 72.525 19.1444L72.525-26.3992Q72.525-28.2677 71.1891-29.5879Q69.8532-30.9082 67.9848-30.9082Q66.1163-30.9082 64.8045-29.5879Q63.4926-28.2677 63.4926-26.3992L63.4926-10.2501Q61.7859-9.5726 60.0281-9.5726Q57.9216-9.5726 56.7062-10.8635Q55.4909-12.1544 55.4909-14.4096L55.4909-28.9467Q55.4909-30.9334 54.1615-32.1636Q52.832-33.3939 51.0124-33.3939Q49.2264-33.3939 47.9137-32.1636Q46.6011-30.9334 46.6011-28.9467L46.6011-17.5896Q44.8608-16.8793 43.1358-16.8793Q41.0294-16.8793 39.814-18.1866Q38.5986-19.4939 38.5986-21.7163L38.5986-31.3858Q38.5986-33.403 37.2295-34.6737Q35.8604-35.9444 34.0096-35.9444Q32.2411-35.9444 30.896-34.6737Q29.5509-33.403 29.5509-31.3858L29.5509-25.1556Q25.6111-25.1556 23.5413-28.6682Q21.4714-32.1808 21.4714-38.7863L21.4714-52.9915Q21.4714-65.5495 25.8362-74.3176Q30.201-83.0856 38.2652-87.6511Q46.3295-92.2165 57.4554-92.2165Z"/>
  </g>
  <g id="Medium-L" transform="matrix(1 0 0 1 1683.08 1556)">
   <path d="M56.4362-101.633Q46.2814-101.625 37.9841-98.4344Q29.6867-95.2438 23.7072-89.0846Q17.7277-82.9254 14.5035-74.062Q11.2793-65.1985 11.2793-53.8513L11.2793-39.5081Q11.2793-28.3821 16.2331-22.1546Q21.1868-15.9271 30.114-15.7585Q31.2714-12.3192 34.1328-10.3111Q36.9942-8.30307 41.0324-8.30307Q43.6699-8.30307 46.3661-9.19113Q47.6387-5.45044 50.6161-3.30429Q53.5934-1.15814 57.7255-1.15814Q58.7082-1.15814 59.7462-1.3073Q60.7841-1.45645 61.8065-1.79367L61.8065 18.0557Q61.8065 22.1718 63.4922 25.2254Q65.1779 28.2791 68.1164 29.958Q71.0548 31.6368 74.855 31.6368Q78.7224 31.6368 81.7116 29.958Q84.7008 28.2791 86.3995 25.2254Q88.0981 22.1718 88.0981 18.0557L88.0981-33.6731Q88.0981-34.2766 88.578-34.2766Q88.8931-34.2766 89.0884-33.8234L93.3746-23.4489Q95.0027-19.9501 97.7119-18.1187Q100.421-16.2872 103.74-16.2872Q108.609-16.2872 112.138-19.2917Q115.667-22.2961 115.667-27.6634Q115.667-29.1306 115.376-30.8807Q115.086-32.6309 114.505-34.2323L103.129-66.1423Q96.9032-83.7021 85.083-92.6723Q73.2628-101.643 56.4362-101.633ZM56.1485-92.3309Q65.065-92.3309 72.4094-89.286Q79.7539-86.2411 85.3603-79.776Q90.9668-73.3109 94.6907-63.0867L106.291-31.3835Q106.518-30.7129 106.656-30.0751Q106.793-29.4373 106.793-28.6865Q106.793-27.0645 105.676-25.8934Q104.558-24.7223 102.682-24.7223Q99.9313-24.7223 98.5359-28.0609L89.7949-47.4442Q88.7566-49.6803 87.3066-50.5833Q85.8566-51.4862 84.1797-51.4862Q82.1129-51.4862 80.7034-50.0473Q79.2938-48.6084 79.2938-46.241L79.2854 18.5921Q79.2854 20.6093 78.0701 21.8891Q76.8547 23.1689 74.9168 23.1689Q72.9797 23.1689 71.7957 21.8891Q70.6116 20.6093 70.6116 18.5921L70.6116-26.9783Q70.6116-28.672 69.4103-29.8645Q68.2091-31.057 66.5154-31.057Q64.8224-31.057 63.6456-29.8645Q62.4687-28.672 62.4687-26.9783L62.4687-10.6544Q60.6339-9.88998 58.7273-9.88998Q56.4117-9.88998 55.0987-11.2984Q53.7857-12.7068 53.7857-15.1917L53.7857-29.4594Q53.7857-31.3034 52.578-32.4028Q51.3702-33.5022 49.7253-33.5022Q48.1209-33.5022 46.933-32.4028Q45.7451-31.3034 45.7451-29.4594L45.7451-17.8391Q43.8698-17.0341 42.0036-17.0341Q39.6881-17.0341 38.3751-18.4628Q37.0621-19.8914 37.0621-22.3358L37.0621-31.8779Q37.0621-33.7402 35.8212-34.8724Q34.5802-36.0046 32.9178-36.0046Q31.3446-36.0046 30.1277-34.8724Q28.9108-33.7402 28.9108-31.8779L28.9108-25.0877Q24.6681-25.0877 22.4262-28.941Q20.1843-32.7942 20.1843-39.9658L20.1843-52.9648Q20.1843-65.6036 24.5728-74.4019Q28.9612-83.2001 37.022-87.7655Q45.0829-92.3309 56.1485-92.3309Z"/>
  </g>
  <g id="Regular-L" transform="matrix(1 0 0 1 1388.25 1556)">
   <path d="M54.6875-99.9023Q45.0684-99.9023 37.1094-96.8262Q29.1504-93.75 23.3643-87.793Q17.5781-81.8359 14.4287-73.2666Q11.2793-64.6973 11.2793-53.7109L11.2793-40.5273Q11.2793-29.6387 15.9912-23.6572Q20.7031-17.6758 29.2969-17.5781Q30.3223-14.209 33.0078-12.2314Q35.6934-10.2539 39.5996-10.2539Q42.334-10.2539 45.2148-11.2305Q46.3379-7.56836 49.2188-5.44434Q52.0996-3.32031 56.1523-3.32031Q57.2754-3.32031 58.4717-3.49121Q59.668-3.66211 60.8398-4.05273L60.8398 17.4316Q60.8398 21.2402 62.4023 24.0479Q63.9648 26.8555 66.6748 28.3936Q69.3848 29.9316 72.8516 29.9316Q76.3672 29.9316 79.1016 28.3936Q81.8359 26.8555 83.3984 24.0479Q84.9609 21.2402 84.9609 17.4316L84.9609-36.6699Q84.9609-37.2559 85.4492-37.2559Q85.791-37.2559 85.9863-36.7676L90.9668-24.6094Q92.4805-20.9961 95.0928-19.1162Q97.7051-17.2363 100.928-17.2363Q105.322-17.2363 108.618-19.9463Q111.914-22.6562 111.914-27.6367Q111.914-28.9551 111.646-30.5908Q111.377-32.2266 110.84-33.7402L99.5605-65.5273Q93.5547-82.5684 82.2266-91.2354Q70.8984-99.9023 54.6875-99.9023ZM54.4434-92.4805Q63.2812-92.4805 70.6299-89.4531Q77.9785-86.4258 83.5938-79.9561Q89.209-73.4863 92.8711-63.1836L104.199-31.4453Q104.443-30.7129 104.59-30.0049Q104.736-29.2969 104.736-28.4668Q104.736-26.6602 103.491-25.3662Q102.246-24.0723 100.195-24.0723Q97.1191-24.0723 95.5566-27.832L87.1582-47.1191Q86.1816-49.2676 84.8633-50.1221Q83.5449-50.9766 81.9824-50.9766Q80.127-50.9766 78.9062-49.6826Q77.6855-48.3887 77.6855-46.3379L77.6855 17.8711Q77.6855 20.1172 76.3428 21.5332Q75 22.9492 72.8516 22.9492Q70.7031 22.9492 69.4092 21.5332Q68.1152 20.1172 68.1152 17.8711L68.1152-27.7344Q68.1152-29.1992 67.0898-30.2246Q66.0645-31.25 64.5996-31.25Q63.1348-31.25 62.1338-30.2246Q61.1328-29.1992 61.1328-27.7344L61.1328-11.1816Q59.1309-10.3027 57.0312-10.3027Q54.4434-10.3027 53.0029-11.8652Q51.5625-13.4277 51.5625-16.2109L51.5625-30.127Q51.5625-31.7871 50.5127-32.7148Q49.4629-33.6426 48.0469-33.6426Q46.6797-33.6426 45.6543-32.7148Q44.6289-31.7871 44.6289-30.127L44.6289-18.1641Q42.5781-17.2363 40.5273-17.2363Q37.9395-17.2363 36.499-18.8232Q35.0586-20.4102 35.0586-23.1445L35.0586-32.5195Q35.0586-34.1797 33.9844-35.1318Q32.9102-36.084 31.4941-36.084Q30.1758-36.084 29.126-35.1318Q28.0762-34.1797 28.0762-32.5195L28.0762-25Q23.4375-25 20.9717-29.2969Q18.5059-33.5938 18.5059-41.5039L18.5059-52.9297Q18.5059-65.6738 22.9248-74.5117Q27.3438-83.3496 35.4004-87.915Q43.457-92.4805 54.4434-92.4805Z"/>
  </g>
  <g id="Light-L" transform="matrix(1 0 0 1 1093.06 1556)">
   <path d="M53.1891-98.1316Q44.0697-98.1316 36.4056-95.2522Q28.7415-92.3729 23.1068-86.7031Q17.4721-81.0333 14.3757-72.7215Q11.2793-64.4096 11.2793-53.5294L11.2793-41.1179Q11.2793-30.2589 15.7413-24.4289Q20.2034-18.5989 28.5095-18.5165Q29.4746-15.2229 32.0847-13.2683Q34.6947-11.3136 38.5399-11.3136Q41.2895-11.3136 44.3069-12.3352Q45.3087-8.86993 48.0534-6.82182Q50.798-4.77371 54.7447-4.77371Q55.9433-4.77371 57.238-4.98238Q58.5327-5.19104 59.8106-5.62668L59.8106 16.5237Q59.8106 20.0745 61.2747 22.6704Q62.7388 25.2663 65.2294 26.6682Q67.72 28.0701 70.8229 28.0701Q74.0059 28.0701 76.5209 26.6682Q79.0359 25.2663 80.4924 22.6704Q81.9489 20.0745 81.9489 16.5237L81.9489-39.6667Q81.9489-40.2374 82.4371-40.2374Q82.7942-40.2374 83.0048-39.7346L89.0442-24.7459Q90.5128-21.1777 93.0344-19.3733Q95.5559-17.569 98.5664-17.5392Q102.704-17.5392 105.795-20.1431Q108.887-22.747 108.871-27.3949Q108.842-28.5767 108.603-30.0385Q108.365-31.5002 107.888-32.8323L96.3516-65.4518Q90.6937-81.5239 79.744-89.8277Q68.7943-98.1316 53.1891-98.1316ZM53.0357-92.4049Q61.9041-92.4049 69.2451-89.2563Q76.5862-86.1076 82.103-79.7062Q87.6198-73.3047 91.0545-63.5773L102.595-30.9761Q102.854-30.2132 103.008-29.4521Q103.162-28.6911 103.162-27.8008Q103.162-25.7973 101.758-24.3824Q100.354-22.9675 98.1369-22.9675Q94.7578-22.9675 93.029-27.1812L84.8274-46.6499Q84.0172-48.526 82.835-49.2973Q81.6528-50.0687 80.1964-50.0687Q78.5072-50.0687 77.3472-48.9258Q76.1871-47.7829 76.1871-45.8687L76.1871 16.7961Q76.1871 19.3909 74.7158 21.0037Q73.2445 22.6166 70.8229 22.6166Q68.3876 22.6166 66.98 21.0037Q65.5724 19.3909 65.5724 16.7961L65.5724-27.4162Q65.5724-28.6545 64.7816-29.5437Q63.9908-30.4329 62.7678-30.4329Q61.515-30.4329 60.7563-29.5437Q59.9976-28.6545 59.9976-27.4162L59.9976-11.1664Q57.663-10.2272 55.4115-10.2272Q52.5513-10.2272 50.9594-11.9713Q49.3675-13.7154 49.3675-16.877L49.3675-29.7943Q49.3675-31.3026 48.5374-32.0713Q47.7074-32.84 46.5637-32.84Q45.4842-32.84 44.6552-32.0713Q43.8263-31.3026 43.8263-29.7943L43.8263-17.7399Q41.4734-16.7671 39.241-16.7671Q36.38-16.7671 34.7885-18.5204Q33.197-20.2736 33.197-23.4016L33.197-32.1869Q33.197-33.7105 32.3498-34.4887Q31.5025-35.2669 30.3741-35.2669Q29.3129-35.2669 28.4676-34.4887Q27.6222-33.7105 27.6222-32.1869L27.6222-24.2737Q22.4388-24.2737 19.7231-28.7674Q17.0074-33.2611 17.0074-41.7313L17.0074-53.0357Q17.0074-65.9309 21.5549-74.7086Q26.1024-83.4862 34.2045-87.9456Q42.3065-92.4049 53.0357-92.4049Z"/>
  </g>
  <g id="Thin-L" transform="matrix(1 0 0 1 798.359 1556)">
   <path d="M51.207-95.7893Q42.7483-95.7893 35.4748-93.1702Q28.2013-90.551 22.7665-85.2619Q17.3317-79.9728 14.3055-72.0013Q11.2793-64.0297 11.2793-53.289L11.2793-41.8983Q11.2793-31.0799 15.411-25.4501Q19.5427-19.8204 27.4689-19.7578Q28.3539-16.5642 30.8636-14.6393Q33.3733-12.7144 37.1391-12.7144Q39.9086-12.7144 43.1053-13.797Q43.9476-10.5919 46.5118-8.64372Q49.0761-6.69556 52.8831-6.69556Q54.1817-6.69556 55.6065-6.95419Q57.0312-7.21283 58.4496-7.70874L58.4496 15.3221Q58.4496 18.5333 59.7836 20.8488Q61.1176 23.1644 63.3175 24.3858Q65.5174 25.6073 68.1412 25.6073Q70.8832 25.6073 73.1079 24.3858Q75.3326 23.1644 76.6487 20.8488Q77.9648 18.5333 77.9648 15.3221L77.9648-43.6302Q77.9648-44.1811 78.4531-44.1811Q78.8307-44.1811 79.0611-43.6577L86.5021-24.926Q87.9105-21.418 90.3118-19.714Q92.7132-18.0099 95.4437-17.9398Q99.2401-17.9398 102.061-20.4033Q104.883-22.8668 104.848-27.0744Q104.778-28.0762 104.579-29.3076Q104.381-30.5389 103.985-31.6307L92.1074-65.3519Q86.9102-80.143 76.461-87.9662Q66.0118-95.7893 51.207-95.7893ZM51.1742-92.305Q60.0822-92.305 67.4133-88.9961Q74.7444-85.6873 80.1311-79.3758Q85.5179-73.0644 88.6528-64.0976L100.473-30.3558Q100.752-29.5525 100.916-28.7216Q101.08-27.8908 101.08-26.9203Q101.08-24.6567 99.4659-23.0812Q97.8516-21.5057 95.414-21.5057Q91.6351-21.5057 89.6858-26.3206L81.7444-46.0297Q81.1546-47.5449 80.1525-48.2059Q79.1504-48.867 77.8343-48.867Q76.3657-48.867 75.2853-47.9248Q74.205-46.9826 74.205-45.2484L74.205 15.3748Q74.205 18.4296 72.5636 20.3026Q70.9221 22.1756 68.1412 22.1756Q65.3244 22.1756 63.7669 20.3026Q62.2093 18.4296 62.2093 15.3748L62.2093-26.9958Q62.2093-27.9335 61.7287-28.6427Q61.248-29.3518 60.3462-29.3518Q59.3735-29.3518 58.9348-28.6427Q58.4961-27.9335 58.4961-26.9958L58.4961-11.1465Q55.7205-10.1273 53.27-10.1273Q50.0488-10.1273 48.2571-12.1113Q46.4653-14.0953 46.4653-17.7574L46.4653-29.3533Q46.4653-30.6625 45.9251-31.221Q45.385-31.7795 44.6014-31.7795Q43.9026-31.7795 43.3342-31.221Q42.7658-30.6625 42.7658-29.3533L42.7658-17.1799Q40.0116-16.1469 37.5389-16.1469Q34.3185-16.1469 32.5264-18.1202Q30.7343-20.0935 30.7343-23.7419L30.7343-31.7459Q30.7343-33.0902 30.1876-33.638Q29.641-34.1858 28.8925-34.1858Q28.1723-34.1858 27.597-33.638Q27.0218-33.0902 27.0218-31.7459L27.0218-23.3124Q21.1174-23.3124 18.0714-28.0663Q15.0253-32.8201 15.0253-42.0311L15.0253-53.1761Q15.0253-66.2712 19.7433-74.9687Q24.4614-83.6662 32.6233-87.9856Q40.7852-92.305 51.1742-92.305Z"/>
  </g>
  <g id="Ultralight-L" transform="matrix(1 0 0 1 502.678 1556)">
   <path d="M50.1923-94.5892Q42.0715-94.5892 34.9979-92.1036Q27.9243-89.6179 22.5922-84.5234Q17.26-79.4289 14.2696-71.6316Q11.2793-63.8344 11.2793-53.1662L11.2793-42.2981Q11.2793-31.5002 15.242-25.9731Q19.2047-20.446 26.9356-20.3934Q27.7794-17.2516 30.238-15.3419Q32.6965-13.4323 36.4212-13.4323Q39.2006-13.4323 42.4904-14.5454Q43.2503-11.4738 45.7222-9.5768Q48.1941-7.67975 51.9295-7.67975Q53.2791-7.67975 54.7707-7.96394Q56.2622-8.24814 57.7522-8.77533L57.7522 14.7072Q57.7522 17.7437 59.0195 19.9154Q60.2867 22.0871 62.3383 23.2166Q64.3898 24.3462 66.7664 24.3462Q69.2833 24.3462 71.3593 23.2166Q73.4352 22.0871 74.6799 19.9154Q75.9247 17.7437 75.9247 14.7072L75.9247-45.6612Q75.9247-46.2013 76.413-46.2013Q76.7998-46.2013 77.0409-45.668L85.1997-25.0183Q86.5768-21.5408 88.9168-19.8879Q91.2567-18.235 93.8438-18.1442Q97.4663-18.1442 100.149-20.5364Q102.832-22.9286 102.787-26.9104Q102.696-27.8198 102.518-28.9333Q102.341-30.0468 101.985-31.0158L89.9338-65.3Q84.9724-79.435 74.7795-87.0121Q64.5866-94.5892 50.1923-94.5892ZM50.2205-92.2531Q59.1492-92.2531 66.4749-88.8626Q73.8007-85.4721 79.1206-79.2068Q84.4406-72.9416 87.4222-64.3646L99.3858-30.0377Q99.675-29.2145 99.8444-28.3474Q100.014-27.4803 100.014-26.4687Q100.014-24.0715 98.2918-22.4144Q96.5698-20.7573 94.0193-20.7573Q90.0352-20.7573 87.973-25.8797L80.1651-45.7115Q79.6883-47.0428 78.7785-47.6475Q77.8687-48.2521 76.6243-48.2521Q75.2678-48.2521 74.229-47.4121Q73.1903-46.5721 73.1903-44.9303L73.1903 14.6469Q73.1903 17.9375 71.4615 19.944Q69.7327 21.9505 66.7664 21.9505Q63.7558 21.9505 62.1212 19.944Q60.4866 17.9375 60.4866 14.6469L60.4866-26.7807Q60.4866-27.5642 60.165-28.1811Q59.8434-28.7979 59.1049-28.7979Q58.2756-28.7979 58.0013-28.1811Q57.7271-27.5642 57.7271-26.7807L57.7271-11.1359Q54.7264-10.0754 52.1721-10.0754Q48.7671-10.0754 46.8727-12.183Q44.9783-14.2906 44.9783-18.2091L44.9783-29.1283Q44.9783-30.3337 44.5869-30.7846Q44.1956-31.2355 43.5966-31.2355Q43.0923-31.2355 42.6571-30.7846Q42.2218-30.3337 42.2218-29.1283L42.2218-16.8922Q39.2632-15.8287 36.6676-15.8287Q33.2619-15.8287 31.3675-17.915Q29.4731-20.0012 29.4731-23.9166L29.4731-31.5208Q29.4731-32.7721 29.0802-33.202Q28.6873-33.6319 28.1342-33.6319Q27.5871-33.6319 27.1503-33.202Q26.7136-32.7721 26.7136-31.5208L26.7136-22.8203Q20.4407-22.8203 17.2256-27.7077Q14.0106-32.5951 14.0106-42.1852L14.0106-53.2478Q14.0106-66.4459 18.8152-75.1022Q23.6198-83.7585 31.813-88.0058Q40.0063-92.2531 50.2205-92.2531Z"/>
  </g>
  <g id="Black-M" transform="matrix(1 0 0 1 2876 1126)">
   <path d="M51.3672-94.1406Q37.793-94.0918 28.2715-88.916Q18.75-83.7402 13.7451-73.9502Q8.74023-64.1602 8.74023-50.2441L8.74023-33.9844Q8.74023-24.3164 13.623-18.3838Q18.5059-12.4512 26.9043-11.9629Q28.3691-9.0332 31.3721-7.34863Q34.375-5.66406 38.0859-5.66406Q39.6973-5.66406 40.9668-5.95703Q42.627-2.73438 45.3369-1.00098Q48.0469 0.732422 51.6113 0.732422Q51.8555 0.732422 52.0508 0.683594L52.0508 8.69141Q52.0508 15.4785 56.0791 19.6777Q60.1074 23.877 66.6504 23.877Q73.4375 23.877 77.6367 19.6777Q81.8359 15.4785 81.8359 8.69141L81.8359-21.0938Q81.8359-21.6309 82.1777-21.6309Q82.3242-21.6309 82.4707-21.4355L82.9102-20.752Q84.7168-18.5547 87.2314-17.4072Q89.7461-16.2598 92.6758-16.2598Q98.584-16.2598 102.319-19.8975Q106.055-23.5352 106.055-29.4434Q106.055-31.2012 105.737-33.0322Q105.42-34.8633 104.785-36.4746L95.459-62.0117Q89.6973-77.6855 78.3936-85.9375Q67.0898-94.1895 51.3672-94.1406ZM50.9766-78.8086Q61.9141-78.8086 69.2383-73.1689Q76.5625-67.5293 81.2012-56.4941L91.5527-31.7871Q91.7969-31.2988 91.7969-30.957Q91.7969-30.4688 91.4551-30.1025Q91.1133-29.7363 90.4297-29.7363Q89.6973-29.7363 89.3555-30.5176L81.0547-46.0938Q79.9805-48.0957 78.2959-48.999Q76.6113-49.9023 74.8535-49.9023Q72.3633-49.9023 70.3857-48.1445Q68.4082-46.3867 68.4082-43.1641L68.3594 9.47266Q68.3594 10.1074 67.9688 10.5225Q67.5781 10.9375 66.9922 10.9375Q66.3574 10.9375 65.918 10.5225Q65.4785 10.1074 65.4785 9.47266L65.4785-25.1953Q65.4785-27.5391 63.8184-29.1748Q62.1582-30.8105 59.8633-30.8105Q57.5684-30.8105 55.9082-29.1748Q54.248-27.5391 54.248-25.1953L54.248-13.7207Q53.4668-13.6719 52.832-13.6719Q52.1973-13.6719 51.7334-14.0869Q51.2695-14.502 51.2695-15.1855L51.2695-27.5391Q51.2695-29.7852 49.6826-31.3721Q48.0957-32.959 45.8496-32.959Q43.5547-32.959 41.9678-31.3721Q40.3809-29.7852 40.3809-27.5391L40.3809-20.0684Q39.6484-20.0195 38.9648-20.0195Q38.3789-20.0195 37.915-20.459Q37.4512-20.8984 37.4512-21.5332L37.4512-29.541Q37.4512-31.8848 35.7666-33.5205Q34.082-35.1562 31.7383-35.1562Q29.4434-35.1562 27.8076-33.5205Q26.1719-31.8848 26.1719-29.541L26.1719-27.5391Q24.5117-27.5391 23.7305-28.54Q22.9492-29.541 22.9492-31.8359L22.9492-49.1699Q22.9492-58.5449 26.2695-65.1611Q29.5898-71.7773 35.8398-75.293Q42.0898-78.8086 50.9766-78.8086Z"/>
  </g>
  <g id="Heavy-M" transform="matrix(1 0 0 1 2581.37 1126)">
   <path d="M49.4423-92.308Q36.6402-92.2707 27.5337-87.2738Q18.4273-82.2769 13.5838-72.8554Q8.74023-63.4338 8.74023-50.106L8.74023-35.1715Q8.74023-25.7919 13.3636-20.1473Q17.9871-14.5027 26.017-14.1068Q27.3323-11.2343 30.1277-9.58443Q32.9231-7.93457 36.4838-7.93457Q38.2103-7.93457 39.6873-8.3313Q41.1865-5.16586 43.7984-3.44391Q46.4104-1.72195 49.8825-1.72195Q50.4837-1.72195 51.0368-1.87454L51.0368 8.08029Q51.0368 14.3494 54.7653 18.2259Q58.4938 22.1024 64.518 22.1024Q70.7291 22.1024 74.5941 18.2259Q78.4592 14.3494 78.4592 8.08029L78.4592-24.2973Q78.4592-24.8116 78.8124-24.8116Q78.994-24.8116 79.1283-24.5819L80.2368-22.2153Q81.9046-19.857 84.3155-18.6287Q86.7264-17.4004 89.576-17.4004Q94.931-17.4004 98.4184-20.6924Q101.906-23.9845 101.906-29.4548Q101.906-31.0516 101.611-32.7789Q101.317-34.5062 100.729-36.0367L91.5749-61.2511Q86.0207-76.4641 75.2644-84.4048Q64.5081-92.3454 49.4423-92.308ZM49.0868-79.0047Q59.8625-79.0047 67.2676-73.4631Q74.6727-67.9214 79.2763-56.5399L89.225-31.9717Q89.5035-31.3332 89.5035-30.8189Q89.5035-30.146 89.035-29.6417Q88.5666-29.1374 87.6984-29.1374Q86.6089-29.1374 86.0825-30.368L78.1738-45.771Q77.1568-47.7272 75.6107-48.5844Q74.0646-49.4415 72.422-49.4415Q70.1508-49.4415 68.4093-47.8394Q66.6679-46.2372 66.6679-43.383L66.6306 8.78143Q66.6306 9.63516 66.1076 10.1826Q65.5846 10.73 64.7797 10.73Q63.9374 10.73 63.3827 10.1826Q62.8281 9.63516 62.8281 8.78143L62.8281-26.2321Q62.8281-28.334 61.335-29.7855Q59.8419-31.237 57.7888-31.237Q55.7472-31.237 54.266-29.7855Q52.7847-28.334 52.7847-26.2321L52.7847-14.4005Q51.8646-14.2136 51.0109-14.2136Q50.0999-14.2136 49.4976-14.79Q48.8953-15.3664 48.8953-16.3498L48.8953-28.4607Q48.8953-30.5 47.4583-31.908Q46.0213-33.316 44.017-33.316Q41.9762-33.316 40.5445-31.908Q39.1129-30.5 39.1129-28.4607L39.1129-20.5757Q38.2309-20.388 37.3512-20.388Q36.4655-20.388 35.8692-20.9888Q35.273-21.5897 35.273-22.5243L35.273-30.4398Q35.273-32.5417 33.7612-33.9874Q32.2495-35.4332 30.1598-35.4332Q28.1296-35.4332 26.6609-33.9874Q25.1923-32.5417 25.1923-30.4398L25.1923-27.5848Q23.1522-27.5848 22.1344-29.1046Q21.1166-30.6244 21.1166-33.7608L21.1166-49.1005Q21.1166-58.5793 24.4427-65.2588Q27.7687-71.9383 34.0187-75.4715Q40.2687-79.0047 49.0868-79.0047Z"/>
  </g>
  <g id="Bold-M" transform="matrix(1 0 0 1 2286.97 1126)">
   <path d="M47.29-90.2588Q35.3516-90.2344 26.709-85.437Q18.0664-80.6396 13.4033-71.6309Q8.74023-62.6221 8.74023-49.9512L8.74023-36.499Q8.74023-27.4414 13.0737-22.1191Q17.4072-16.7969 25.0244-16.5039Q26.1719-13.6963 28.7354-12.085Q31.2988-10.4736 34.6924-10.4736Q36.5479-10.4736 38.2568-10.9863Q39.5752-7.88574 42.0776-6.17676Q44.5801-4.46777 47.9492-4.46777Q48.9502-4.46777 49.9023-4.73633L49.9023 7.39746Q49.9023 13.0859 53.2959 16.6016Q56.6895 20.1172 62.1338 20.1172Q67.7002 20.1172 71.1914 16.6016Q74.6826 13.0859 74.6826 7.39746L74.6826-27.8809Q74.6826-28.3691 75.0488-28.3691Q75.2686-28.3691 75.3906-28.1006L77.2461-23.8525Q78.7598-21.3135 81.0547-19.9951Q83.3496-18.6768 86.1084-18.6768Q90.8447-18.6768 94.0552-21.582Q97.2656-24.4873 97.2656-29.4678Q97.2656-30.8838 96.9971-32.4951Q96.7285-34.1064 96.1914-35.5469L87.2314-60.4004Q81.9092-75.0977 71.7651-82.6904Q61.6211-90.2832 47.29-90.2588ZM46.9727-79.2236Q57.5684-79.2236 65.0635-73.7915Q72.5586-68.3594 77.124-56.5918L86.6211-32.1777Q86.9385-31.3721 86.9385-30.6641Q86.9385-29.7852 86.3281-29.126Q85.7178-28.4668 84.6436-28.4668Q83.1543-28.4668 82.4219-30.2002L74.9512-45.4102Q73.999-47.3145 72.6074-48.1201Q71.2158-48.9258 69.7021-48.9258Q67.6758-48.9258 66.1987-47.4976Q64.7217-46.0693 64.7217-43.6279L64.6973 8.00781Q64.6973 9.10645 64.0259 9.80225Q63.3545 10.498 62.3047 10.498Q61.2305 10.498 60.5469 9.80225Q59.8633 9.10645 59.8633 8.00781L59.8633-27.3926Q59.8633-29.2236 58.5571-30.4688Q57.251-31.7139 55.4688-31.7139Q53.7109-31.7139 52.4292-30.4688Q51.1475-29.2236 51.1475-27.3926L51.1475-15.1611Q50.0732-14.8193 48.9746-14.8193Q47.7539-14.8193 46.9971-15.5762Q46.2402-16.333 46.2402-17.6514L46.2402-29.4922Q46.2402-31.2988 44.9707-32.5073Q43.7012-33.7158 41.9678-33.7158Q40.21-33.7158 38.9526-32.5073Q37.6953-31.2988 37.6953-29.4922L37.6953-21.1426Q36.6455-20.8008 35.5469-20.8008Q34.3262-20.8008 33.5815-21.582Q32.8369-22.3633 32.8369-23.6328L32.8369-31.4453Q32.8369-33.2764 31.5186-34.5093Q30.2002-35.7422 28.3936-35.7422Q26.6602-35.7422 25.3784-34.5093Q24.0967-33.2764 24.0967-31.4453L24.0967-27.6367Q21.6309-27.6367 20.3491-29.7363Q19.0674-31.8359 19.0674-35.9131L19.0674-49.0234Q19.0674-58.6182 22.3999-65.3687Q25.7324-72.1191 31.9824-75.6714Q38.2324-79.2236 46.9727-79.2236Z"/>
  </g>
  <g id="Semibold-M" transform="matrix(1 0 0 1 1991.86 1126)">
   <path d="M45.8061-88.8458Q34.4627-88.8306 26.1402-84.1709Q17.8177-79.5113 13.279-70.7867Q8.74023-62.0621 8.74023-49.8444L8.74023-37.4146Q8.74023-28.5789 12.8738-23.4787Q17.0074-18.3784 24.3401-18.1572Q25.3723-15.3938 27.7756-13.8092Q30.1788-12.2246 33.4572-12.2246Q35.4012-12.2246 37.2704-12.8174Q38.4644-9.76105 40.8913-8.06084Q43.3182-6.36063 46.6164-6.36063Q47.8928-6.36063 49.1203-6.70929L49.1203 6.92673Q49.1203 12.2147 52.2827 15.4816Q55.4451 18.7485 60.4897 18.7485Q65.612 18.7485 68.8454 15.4816Q72.0787 12.2147 72.0787 6.92673L72.0787-30.3513Q72.0787-30.822 72.4541-30.822Q72.7005-30.822 72.8134-30.5267L75.1846-24.9809Q76.5915-22.3175 78.8063-20.937Q81.0211-19.5564 83.7181-19.5564Q88.0272-19.5564 91.0469-22.1951Q94.0666-24.8337 94.0666-29.4769Q94.0666-30.7686 93.8156-32.2998Q93.5646-33.831 93.0634-35.2089L84.2361-59.8137Q79.0741-74.1554 69.3523-81.5083Q59.6306-88.8611 45.8061-88.8458ZM45.5154-79.3747Q55.9868-79.3747 63.5441-74.0181Q71.1014-68.6615 75.6401-56.6277L84.8259-32.3196Q85.17-31.3988 85.17-30.5573Q85.17-29.5364 84.462-28.7704Q83.754-28.0045 82.5371-28.0045Q80.7724-28.0045 79.8981-30.085L72.7295-45.1614Q71.8216-47.0299 70.5368-47.8001Q69.252-48.5703 67.8268-48.5703Q65.9698-48.5703 64.6748-47.2622Q63.3797-45.9541 63.3797-43.7965L63.3644 7.47452Q63.3644 8.74176 62.5908 9.53979Q61.8172 10.3378 60.5988 10.3378Q59.3643 10.3378 58.5918 9.53979Q57.8194 8.74176 57.8194 7.47452L57.8194-28.1921Q57.8194-29.837 56.6422-30.9399Q55.4649-32.0427 53.8689-32.0427Q52.3071-32.0427 51.1631-30.9399Q50.0191-29.837 50.0191-28.1921L50.0191-15.6853Q48.838-15.2367 47.5708-15.2367Q46.1365-15.2367 45.2728-16.1182Q44.4092-16.9998 44.4092-18.5486L44.4092-30.2032Q44.4092-31.8497 43.2552-32.9205Q42.1013-33.9912 40.5548-33.9912Q38.9923-33.9912 37.8551-32.9205Q36.718-31.8497 36.718-30.2032L36.718-21.534Q35.5522-21.0854 34.3025-21.0854Q32.8506-21.0854 32.0038-21.991Q31.1569-22.8966 31.1569-24.3973L31.1569-32.1388Q31.1569-33.783 29.9721-34.8694Q28.7872-35.9558 27.1759-35.9558Q25.647-35.9558 24.4942-34.8694Q23.3414-33.783 23.3414-32.1388L23.3414-27.6726Q20.5818-27.6726 19.1181-30.172Q17.6544-32.6714 17.6544-37.397L17.6544-48.97Q17.6544-58.6449 20.9915-65.4442Q24.3286-72.2435 30.5786-75.8091Q36.8286-79.3747 45.5154-79.3747Z"/>
  </g>
  <g id="Medium-M" transform="matrix(1 0 0 1 1696.37 1126)">
   <path d="M44.6808-87.7747Q33.7891-87.7655 25.7092-83.2104Q17.6292-78.6552 13.1847-70.1466Q8.74023-61.6379 8.74023-49.7635L8.74023-38.1081Q8.74023-29.4418 12.722-24.5102Q16.7038-19.5786 23.8213-19.4099Q24.7658-16.6809 27.0477-15.1165Q29.3297-13.5521 32.5203-13.5521Q34.5322-13.5521 36.5227-14.2052Q37.6221-11.1824 39.9918-9.48906Q42.3615-7.79572 45.6055-7.79572Q47.0909-7.79572 48.5275-8.20541L48.5275 6.56967Q48.5275 11.5547 51.5148 14.6328Q54.5021 17.7109 59.243 17.7109Q64.0282 17.7109 67.0662 14.6328Q70.1042 11.5547 70.1042 6.56967L70.1042-32.225Q70.1042-32.682 70.4865-32.682Q70.7527-32.682 70.8595-32.3662L73.6214-25.8369Q74.9474-23.0789 77.1015-21.6515Q79.2557-20.224 81.9054-20.224Q85.8917-20.224 88.7661-22.6604Q91.6405-25.0969 91.6405-29.483Q91.6405-30.6808 91.4032-32.1514Q91.1659-33.622 90.6914-34.9533L81.9656-59.3689Q76.9249-73.4413 67.5228-80.6122Q58.1207-87.7831 44.6808-87.7747ZM44.4099-79.4891Q54.7867-79.4891 62.3913-74.1898Q69.9959-68.8904 74.5148-56.6544L83.4648-32.428Q83.8287-31.4186 83.8287-30.4764Q83.8287-29.348 83.0467-28.5011Q82.2647-27.6543 80.9402-27.6543Q78.9665-27.6543 77.9846-29.9973L71.0449-44.973Q70.1706-46.8147 68.9667-47.5578Q67.7628-48.3009 66.4055-48.3009Q64.6759-48.3009 63.5189-47.0837Q62.3619-45.8664 62.3619-43.9247L62.3535 7.07016Q62.3535 8.46558 61.5025 9.34105Q60.6514 10.2165 59.3048 10.2165Q57.9491 10.2165 57.1091 9.34105Q56.2691 8.46558 56.2691 7.07016L56.2691-28.7987Q56.2691-30.3017 55.1895-31.2969Q54.11-32.2922 52.6566-32.2922Q51.2421-32.2922 50.2026-31.2969Q49.1631-30.3017 49.1631-28.7987L49.1631-16.0828Q47.9012-15.554 46.5057-15.554Q44.9104-15.554 43.9659-16.5295Q43.0214-17.5049 43.0214-19.2299L43.0214-30.7419Q43.0214-32.2678 41.9552-33.234Q40.889-34.2003 39.4836-34.2003Q38.0692-34.2003 37.0228-33.234Q35.9764-32.2678 35.9764-30.7419L35.9764-21.83Q34.7237-21.3005 33.3595-21.3005Q31.7322-21.3005 30.8079-22.3007Q29.8836-23.3009 29.8836-24.9763L29.8836-32.6637Q29.8836-34.1667 28.7998-35.1421Q27.7161-36.1176 26.2527-36.1176Q24.8787-36.1176 23.8235-35.1421Q22.7684-34.1667 22.7684-32.6637L22.7684-27.6993Q19.7868-27.6993 18.185-30.5019Q16.5833-33.3046 16.5833-38.5223L16.5833-48.9296Q16.5833-58.6647 19.9234-65.5014Q23.2635-72.3381 29.5135-75.9136Q35.7635-79.4891 44.4099-79.4891Z"/>
  </g>
  <g id="Regular-M" transform="matrix(1 0 0 1 1401.24 1126)">
   <path d="M43.2129-86.377Q32.9102-86.377 25.1465-81.958Q17.3828-77.5391 13.0615-69.3115Q8.74023-61.084 8.74023-49.6582L8.74023-39.0137Q8.74023-30.5664 12.5244-25.8545Q16.3086-21.1426 23.1445-21.0449Q23.9746-18.3594 26.0986-16.8213Q28.2227-15.2832 31.2988-15.2832Q33.3984-15.2832 35.5469-16.0156Q36.5234-13.0371 38.8184-11.3525Q41.1133-9.66797 44.2871-9.66797Q46.0449-9.66797 47.7539-10.1562L47.7539 6.10352Q47.7539 10.6934 50.5127 13.5254Q53.2715 16.3574 57.6172 16.3574Q61.9629 16.3574 64.7461 13.5254Q67.5293 10.6934 67.5293 6.10352L67.5293-34.668Q67.5293-35.1074 67.9199-35.1074Q68.2129-35.1074 68.3105-34.7656L71.582-26.9531Q72.8027-24.0723 74.8779-22.583Q76.9531-21.0938 79.541-21.0938Q83.1055-21.0938 85.791-23.2666Q88.4766-25.4395 88.4766-29.4922Q88.4766-30.5664 88.2568-31.958Q88.0371-33.3496 87.5977-34.6191L79.0039-58.7891Q74.1211-72.5098 65.1367-79.4434Q56.1523-86.377 43.2129-86.377ZM42.9688-79.6387Q53.2227-79.6387 60.8887-74.4141Q68.5547-69.1895 73.0469-56.6895L81.6895-32.5684Q82.0801-31.4453 82.0801-30.3711Q82.0801-29.1016 81.2012-28.1494Q80.3223-27.1973 78.8574-27.1973Q76.6113-27.1973 75.4883-29.8828L68.8477-44.7266Q68.0176-46.5332 66.9189-47.2412Q65.8203-47.9492 64.5508-47.9492Q62.9883-47.9492 62.0117-46.8506Q61.0352-45.752 61.0352-44.0918L61.0352 6.54297Q61.0352 8.10547 60.083 9.08203Q59.1309 10.0586 57.6172 10.0586Q56.1035 10.0586 55.1758 9.08203Q54.248 8.10547 54.248 6.54297L54.248-29.5898Q54.248-30.9082 53.2959-31.7627Q52.3438-32.6172 51.0742-32.6172Q49.8535-32.6172 48.9502-31.7627Q48.0469-30.9082 48.0469-29.5898L48.0469-16.6016Q46.6797-15.9668 45.1172-15.9668Q43.3105-15.9668 42.2607-17.0654Q41.2109-18.1641 41.2109-20.1172L41.2109-31.4453Q41.2109-32.8125 40.2588-33.6426Q39.3066-34.4727 38.0859-34.4727Q36.8652-34.4727 35.9375-33.6426Q35.0098-32.8125 35.0098-31.4453L35.0098-22.2168Q33.6426-21.582 32.1289-21.582Q30.2734-21.582 29.248-22.7051Q28.2227-23.8281 28.2227-25.7324L28.2227-33.3496Q28.2227-34.668 27.2705-35.498Q26.3184-36.3281 25.0488-36.3281Q23.877-36.3281 22.9492-35.498Q22.0215-34.668 22.0215-33.3496L22.0215-27.7344Q18.75-27.7344 16.9678-30.9326Q15.1855-34.1309 15.1855-39.9902L15.1855-48.877Q15.1855-58.6914 18.5303-65.5762Q21.875-72.4609 28.125-76.0498Q34.375-79.6387 42.9688-79.6387Z"/>
  </g>
  <g id="Light-M" transform="matrix(1 0 0 1 1105.89 1126)">
   <path d="M41.8808-84.7878Q32.1686-84.7878 24.6849-80.6713Q17.2012-76.5549 12.9707-68.6756Q8.74023-60.7964 8.74023-49.4919L8.74023-39.5432Q8.74023-31.1111 12.3051-26.5354Q15.8699-21.9597 22.448-21.8773Q23.2178-19.2673 25.2735-17.7444Q27.3293-16.2216 30.3452-16.2216Q32.46-16.2216 34.7443-16.9998Q35.585-14.2181 37.7663-12.5938Q39.9475-10.9695 43.0305-10.9695Q44.8639-10.9695 46.8307-11.5639L46.8307 5.28641Q46.8307 9.55811 49.3851 12.1178Q51.9394 14.6774 55.7854 14.6774Q59.7076 14.6774 62.2715 12.1178Q64.8354 9.55811 64.8354 5.28641L64.8354-37.3474Q64.8354-37.7869 65.226-37.7869Q65.519-37.7869 65.6464-37.4146L69.8563-27.0592Q71.032-24.2386 73.024-22.8176Q75.016-21.3966 77.4216-21.3814Q80.7594-21.3814 83.2558-23.4482Q85.7521-25.515 85.7368-29.2648Q85.7216-30.2338 85.5247-31.4663Q85.3279-32.6988 84.9487-33.802L76.1131-58.7135Q71.563-71.5714 62.9116-78.1796Q54.2603-84.7878 41.8808-84.7878ZM41.7122-79.5784Q52.0119-79.5784 59.6172-74.1646Q67.2226-68.7508 71.3966-57.0374L80.2361-32.1442Q80.6725-30.9303 80.6725-29.7653Q80.6725-28.3295 79.6497-27.2713Q78.627-26.2131 76.9958-26.2131Q74.4919-26.2131 73.2178-29.2923L66.7587-44.3024Q66.0805-45.8672 65.1028-46.4996Q64.1251-47.1321 62.9463-47.1321Q61.5349-47.1321 60.619-46.1773Q59.7031-45.2225 59.7031-43.6676L59.7031 5.57404Q59.7031 7.45468 58.63 8.60519Q57.5569 9.75571 55.7854 9.75571Q54.0298 9.75571 52.9961 8.60519Q51.9623 7.45468 51.9623 5.57404L51.9623-29.3175Q51.9623-30.4085 51.2299-31.1497Q50.4974-31.8909 49.4392-31.8909Q48.4001-31.8909 47.7089-31.1497Q47.0177-30.4085 47.0177-29.3175L47.0177-16.5863Q45.3629-15.8913 43.6638-15.8913Q41.6-15.8913 40.4217-17.1562Q39.2433-18.4212 39.2433-20.7077L39.2433-31.1577Q39.2433-32.3883 38.488-33.0673Q37.7327-33.7463 36.7538-33.7463Q35.7903-33.7463 35.0445-33.0673Q34.2987-32.3883 34.2987-31.1577L34.2987-21.8384Q32.6439-21.1433 30.9784-21.1433Q28.8811-21.1433 27.7195-22.4251Q26.5579-23.7068 26.5579-25.9598L26.5579-33.0467Q26.5579-34.2438 25.8022-34.9228Q25.0465-35.6018 24.0349-35.6018Q23.1049-35.6018 22.3587-34.9228Q21.6125-34.2438 21.6125-33.0467L21.6125-27.0683Q17.8566-27.0683 15.8474-30.4558Q13.8382-33.8432 13.8382-40.1871L13.8382-48.9677Q13.8382-58.9188 17.3042-65.7505Q20.7703-72.5822 27.0504-76.0803Q33.3305-79.5784 41.7122-79.5784Z"/>
  </g>
  <g id="Thin-M" transform="matrix(1 0 0 1 810.995 1126)">
   <path d="M40.1192-82.6859Q31.1874-82.6859 24.0742-78.97Q16.9609-75.2541 12.8506-67.8352Q8.74023-60.4164 8.74023-49.2714L8.74023-40.2443Q8.74023-31.8321 12.0148-27.4364Q15.2893-23.0408 21.5271-22.9782Q22.2168-20.4689 24.1825-18.9659Q26.1482-17.4629 29.084-17.4629Q31.2187-17.4629 33.6838-18.3006Q34.3437-15.7791 36.375-14.2353Q38.4064-12.6915 41.3696-12.6915Q43.3029-12.6915 45.6093-13.4254L45.6093 4.20532Q45.6093 8.05664 47.8935 10.2558Q50.1778 12.455 53.3638 12.455Q56.7245 12.455 58.9981 10.2558Q61.2717 8.05664 61.2717 4.20532L61.2717-40.8905Q61.2717-41.33 61.6623-41.33Q61.9553-41.33 62.1231-40.918L67.5743-27.1996Q68.6897-24.4591 70.5715-23.1281Q72.4533-21.7972 74.6193-21.7613Q77.6566-21.7613 79.9026-23.6881Q82.1487-25.6149 82.1136-28.965Q82.0786-29.7928 81.9115-30.8155Q81.7444-31.8382 81.4453-32.7209L72.2893-58.6136Q68.1801-70.33 59.9689-76.5079Q51.7578-82.6859 40.1192-82.6859ZM40.0513-79.4983Q50.4105-79.4983 57.9357-73.8342Q65.461-68.1702 69.2146-57.4982L78.315-31.5842Q78.8109-30.2498 78.8109-28.965Q78.8109-27.3087 77.5978-26.1105Q76.3847-24.9123 74.5331-24.9123Q71.6896-24.9123 70.2148-28.5118L63.9961-43.7424Q63.5178-44.9867 62.7003-45.5189Q61.8828-46.051 60.8246-46.051Q59.6138-46.051 58.7776-45.2862Q57.9414-44.5213 57.9414-43.1076L57.9414 4.29306Q57.9414 6.59409 56.7081 7.97462Q55.4749 9.35516 53.3638 9.35516Q51.2871 9.35516 50.1133 7.97462Q48.9395 6.59409 48.9395 4.29306L48.9395-28.9574Q48.9395-29.7478 48.497-30.3387Q48.0545-30.9296 47.2778-30.9296Q46.479-30.9296 46.0678-30.3387Q45.6566-29.7478 45.6566-28.9574L45.6566-16.5665Q43.6211-15.7913 41.7427-15.7913Q39.3379-15.7913 37.9894-17.2764Q36.6409-18.7614 36.6409-21.4882L36.6409-30.7777Q36.6409-31.8283 36.1458-32.3067Q35.6506-32.785 34.9922-32.785Q34.3689-32.785 33.8631-32.3067Q33.3572-31.8283 33.3572-30.7777L33.3572-21.3379Q31.3225-20.5627 29.4571-20.5627Q27.0393-20.5627 25.6973-22.0547Q24.3553-23.5466 24.3553-26.2596L24.3553-32.6462Q24.3553-33.6838 23.8602-34.1621Q23.365-34.6405 22.6936-34.6405Q22.084-34.6405 21.5782-34.1621Q21.0724-33.6838 21.0724-32.6462L21.0724-26.1879Q16.6756-26.1879 14.3661-29.8256Q12.0567-33.4633 12.0567-40.4472L12.0567-49.0875Q12.0567-59.2186 15.6826-65.9805Q19.3085-72.7425 25.629-76.1204Q31.9496-79.4983 40.0513-79.4983Z"/>
  </g>
  <g id="Ultralight-M" transform="matrix(1 0 0 1 515.212 1126)">
   <path d="M39.2166-81.6086Q30.6854-81.6086 23.7617-78.0979Q16.8381-74.5872 12.7892-67.4042Q8.74023-60.2211 8.74023-49.1585L8.74023-40.6029Q8.74023-32.2014 11.866-27.898Q14.9918-23.5947 21.0556-23.5428Q21.7041-21.0838 23.6237-19.5911Q25.5432-18.0984 28.4378-18.0984Q30.5832-18.0984 33.1398-18.9674Q33.7082-16.5794 35.6625-15.0764Q37.6167-13.5735 40.5182-13.5735Q42.5026-13.5735 44.9837-14.3791L44.9837 3.65143Q44.9837 7.2876 47.1294 9.30214Q49.2752 11.3167 52.1225 11.3167Q55.1971 11.3167 57.3219 9.30214Q59.4467 7.2876 59.4467 3.65143L59.4467-42.7055Q59.4467-43.145 59.8373-43.145Q60.1303-43.145 60.3188-42.7124L66.4055-27.2713Q67.4896-24.572 69.3153-23.2868Q71.1411-22.0016 73.1834-21.9566Q76.0666-21.9566 78.1845-23.8117Q80.3024-25.6668 80.2574-28.8109Q80.2116-29.5677 80.0602-30.4825Q79.9088-31.3972 79.6509-32.1671L70.3308-58.5617Q66.4467-69.6945 58.4614-75.6516Q50.4761-81.6086 39.2166-81.6086ZM39.1998-79.4571Q49.5895-79.4571 57.074-73.6649Q64.5584-67.8726 68.0969-57.7339L77.33-31.2965Q77.8572-29.9011 77.8572-28.5545Q77.8572-26.786 76.5469-25.5157Q75.2365-24.2455 73.2719-24.2455Q70.2538-24.2455 68.6768-28.112L62.5809-43.4547Q62.2055-44.5351 61.47-45.0161Q60.7346-45.4971 59.7374-45.4971Q58.6288-45.4971 57.8339-44.8299Q57.0389-44.1628 57.0389-42.82L57.0389 3.63693Q57.0389 6.15311 55.7236 7.6519Q54.4083 9.1507 52.1225 9.1507Q49.8825 9.1507 48.637 7.6519Q47.3915 6.15311 47.3915 3.63693L47.3915-28.7727Q47.3915-29.4098 47.0978-29.9236Q46.804-30.4375 46.17-30.4375Q45.4941-30.4375 45.2267-29.9236Q44.9593-29.4098 44.9593-28.7727L44.9593-16.5558Q42.7292-15.7394 40.7578-15.7394Q38.179-15.7394 36.7432-17.3378Q35.3073-18.9362 35.3073-21.888L35.3073-30.5824Q35.3073-31.5407 34.9457-31.9168Q34.584-32.2929 34.0897-32.2929Q33.6411-32.2929 33.2584-31.9168Q32.8758-31.5407 32.8758-30.5824L32.8758-21.0815Q30.6458-20.2652 28.6781-20.2652Q26.0956-20.2652 24.6616-21.8651Q23.2277-23.465 23.2277-26.4137L23.2277-32.4417Q23.2277-33.3961 22.8657-33.7723Q22.5037-34.1484 22.0062-34.1484Q21.5614-34.1484 21.1784-33.7723Q20.7954-33.3961 20.7954-32.4417L20.7954-25.7362Q16.0706-25.7362 13.6074-29.5021Q11.1443-33.268 11.1443-40.5807L11.1443-49.1493Q11.1443-59.3727 14.8521-66.0984Q18.56-72.8241 24.9008-76.1406Q31.2416-79.4571 39.1998-79.4571Z"/>
  </g>
  <g id="Black-S" transform="matrix(1 0 0 1 2887.89 696)">
   <path d="M40.7227-81.8359Q29.9316-81.8359 22.3389-77.7344Q14.7461-73.6328 10.791-65.8691Q6.83594-58.1055 6.83594-47.0215L6.83594-33.9355Q6.83594-26.2695 10.7422-21.5332Q14.6484-16.7969 21.2891-16.4062Q22.5098-14.1113 24.9023-12.7686Q27.2949-11.4258 30.2734-11.4258Q31.4941-11.4258 32.4219-11.6211Q33.7891-9.08203 35.9131-7.73926Q38.0371-6.39648 40.8691-6.39648Q40.918-6.39648 40.9424-6.39648Q40.9668-6.39648 41.0156-6.39648L41.0156-0.683594Q41.0156 4.78516 44.2627 8.1543Q47.5098 11.5234 52.7344 11.5234Q58.252 11.5234 61.6211 8.1543Q64.9902 4.78516 64.9902-0.683594L64.9902-23.3398Q64.9902-23.7793 65.2344-23.7793Q65.332-23.7793 65.4785-23.6328L65.6738-23.4375Q67.0898-21.7773 69.0918-20.8984Q71.0938-20.0195 73.4375-20.0195Q78.2227-20.0195 81.2012-22.9736Q84.1797-25.9277 84.1797-30.6641Q84.1797-32.0801 83.9355-33.5449Q83.6914-35.0098 83.1543-36.2793L75.7812-56.4453Q71.2402-68.8477 62.2314-75.3662Q53.2227-81.8848 40.7227-81.8359ZM40.4297-69.2871Q49.0234-69.2871 54.7607-64.8438Q60.498-60.4004 64.1113-51.9043L72.3633-32.4707Q72.5098-32.1289 72.5098-31.8848Q72.5098-31.543 72.29-31.2988Q72.0703-31.0547 71.582-31.0547Q71.0938-31.0547 70.8496-31.543L64.2578-43.7988Q63.4277-45.3613 62.0605-46.0938Q60.6934-46.8262 59.2773-46.8262Q57.2754-46.8262 55.6641-45.4102Q54.0527-43.9941 54.0527-41.3574L54.0039-0.0488281Q54.0039 0.390625 53.7354 0.683594Q53.4668 0.976562 53.0273 0.976562Q52.5879 0.976562 52.2705 0.683594Q51.9531 0.390625 51.9531-0.0488281L51.9531-27.0508Q51.9531-28.9062 50.6104-30.249Q49.2676-31.5918 47.4121-31.5918Q45.5566-31.5918 44.2139-30.249Q42.8711-28.9062 42.8711-27.0508L42.8711-18.1641Q42.627-18.1641 42.3584-18.1641Q42.0898-18.1641 41.8457-18.1641Q40.7715-18.1641 40.7715-19.1895L40.7715-28.9062Q40.7715-30.7617 39.502-32.0312Q38.2324-33.3008 36.377-33.3008Q34.5703-33.3008 33.2764-32.0312Q31.9824-30.7617 31.9824-28.9062L31.9824-23.1934Q31.7383-23.1934 31.4697-23.1934Q31.2012-23.1934 30.957-23.1934Q29.8828-23.1934 29.8828-24.2188L29.8828-30.4688Q29.8828-32.373 28.54-33.7158Q27.1973-35.0586 25.293-35.0586Q23.4375-35.0586 22.0947-33.7158Q20.752-32.373 20.752-30.4688L20.752-29.1504Q19.5312-29.1504 18.9941-29.7852Q18.457-30.4199 18.457-31.9824L18.457-46.1914Q18.457-53.5156 21.0449-58.667Q23.6328-63.8184 28.5645-66.5527Q33.4961-69.2871 40.4297-69.2871Z"/>
  </g>
  <g id="Heavy-S" transform="matrix(1 0 0 1 2592.78 696)">
   <path d="M39.2593-80.4764Q29.0329-80.4764 21.7628-76.49Q14.4928-72.5037 10.6644-65.0108Q6.83594-57.518 6.83594-46.9177L6.83594-34.8808Q6.83594-27.4567 10.5461-22.9507Q14.2563-18.4448 20.6207-18.1351Q21.7148-15.8745 23.946-14.5607Q26.1772-13.2469 29.0176-13.2469Q30.3413-13.2469 31.4308-13.5223Q32.6714-11.0184 34.7321-9.66988Q36.7928-8.32138 39.5554-8.32138Q39.7423-8.32138 39.9109-8.34427Q40.0795-8.36716 40.2664-8.40149L40.2664-1.11008Q40.2664 3.96729 43.2831 7.09419Q46.2997 10.2211 51.1436 10.2211Q56.2233 10.2211 59.3334 7.09419Q62.4435 3.96729 62.4435-1.11008L62.4435-25.737Q62.4435-26.1536 62.6991-26.1536Q62.8311-26.1536 62.9662-25.972L63.6108-24.6704Q64.9231-22.8722 66.8446-21.9185Q68.766-20.9648 71.0518-20.9648Q75.399-20.9648 78.1876-23.6362Q80.9761-26.3077 80.9761-30.6984Q80.9875-31.9992 80.7549-33.3893Q80.5222-34.7794 80.0308-36.0023L72.831-55.7999Q68.4166-67.9138 59.84-74.2134Q51.2634-80.513 39.2593-80.4764ZM38.9778-69.4717Q47.4327-69.4717 53.2394-65.126Q59.0462-60.7803 62.6709-51.8929L70.5421-32.6782Q70.7352-32.2212 70.7352-31.839Q70.7352-31.3698 70.4174-31.0223Q70.0996-30.6747 69.4733-30.6747Q68.7195-30.6747 68.3487-31.485L62.0567-43.5799Q61.261-45.1424 59.9976-45.8344Q58.7341-46.5263 57.399-46.5263Q55.5695-46.5263 54.1542-45.2312Q52.739-43.9362 52.739-41.5993L52.7016-0.521088Q52.7016 0.0679016 52.3293 0.453186Q51.9569 0.83847 51.368 0.83847Q50.7782 0.83847 50.3803 0.453186Q49.9825 0.0679016 49.9825-0.521088L49.9825-27.9724Q49.9825-29.6555 48.7549-30.854Q47.5273-32.0526 45.8565-32.0526Q44.1849-32.0526 42.9691-30.854Q41.7534-29.6555 41.7534-27.9724L41.7534-18.7515Q41.4627-18.6943 41.1251-18.6653Q40.7875-18.6363 40.4739-18.6363Q38.9969-18.6363 38.9969-20.1111L38.9969-29.7363Q38.9969-31.4186 37.8254-32.5615Q36.6539-33.7044 34.9823-33.7044Q33.3488-33.7044 32.1701-32.5615Q30.9914-31.4186 30.9914-29.7363L30.9914-23.6771Q30.7014-23.6198 30.3635-23.5909Q30.0255-23.5619 29.7127-23.5619Q28.2349-23.5619 28.2349-25.0366L28.2349-31.2752Q28.2349-32.9956 27.0073-34.1942Q25.7797-35.3928 24.0715-35.3928Q22.4007-35.3928 21.1845-34.1942Q19.9684-32.9956 19.9684-31.2752L19.9684-29.277Q18.4822-29.277 17.7723-30.3326Q17.0624-31.3881 17.0624-33.6075L17.0624-46.1105Q17.0624-53.5156 19.6445-58.7246Q22.2267-63.9336 27.1412-66.7027Q32.0557-69.4717 38.9778-69.4717Z"/>
  </g>
  <g id="Bold-S" transform="matrix(1 0 0 1 2297.86 696)">
   <path d="M37.6221-78.9551Q28.0273-78.9551 21.1182-75.0977Q14.209-71.2402 10.5225-64.0503Q6.83594-56.8604 6.83594-46.8018L6.83594-35.9375Q6.83594-28.7842 10.3271-24.5361Q13.8184-20.2881 19.873-20.0684Q20.8252-17.8467 22.876-16.5649Q24.9268-15.2832 27.6123-15.2832Q29.0527-15.2832 30.3223-15.6494Q31.4209-13.1836 33.4106-11.8286Q35.4004-10.4736 38.0859-10.4736Q38.4277-10.4736 38.7573-10.5225Q39.0869-10.5713 39.4287-10.6445L39.4287-1.58691Q39.4287 3.05176 42.1875 5.9082Q44.9463 8.76465 49.3652 8.76465Q53.9551 8.76465 56.7749 5.9082Q59.5947 3.05176 59.5947-1.58691L59.5947-28.418Q59.5947-28.8086 59.8633-28.8086Q60.0342-28.8086 60.1562-28.5889L61.3037-26.0498Q62.5-24.0967 64.3311-23.0591Q66.1621-22.0215 68.3838-22.0215Q72.2412-22.0215 74.8169-24.3774Q77.3926-26.7334 77.3926-30.7373Q77.417-31.9092 77.1973-33.2153Q76.9775-34.5215 76.5381-35.6934L69.5312-55.0781Q65.2588-66.8701 57.1655-72.9248Q49.0723-78.9795 37.6221-78.9551ZM37.3535-69.6777Q45.6543-69.6777 51.5381-65.4419Q57.4219-61.2061 61.0596-51.8799L68.5059-32.9102Q68.75-32.3242 68.75-31.7871Q68.75-31.1768 68.3228-30.7129Q67.8955-30.249 67.1143-30.249Q66.0645-30.249 65.5518-31.4209L59.5947-43.335Q58.8379-44.8975 57.6904-45.5444Q56.543-46.1914 55.2979-46.1914Q53.6621-46.1914 52.4658-45.0317Q51.2695-43.8721 51.2695-41.8701L51.2451-1.0498Q51.2451-0.292969 50.7568 0.195312Q50.2686 0.683594 49.5117 0.683594Q48.7549 0.683594 48.2666 0.195312Q47.7783-0.292969 47.7783-1.0498L47.7783-29.0039Q47.7783-30.4932 46.6797-31.5308Q45.5811-32.5684 44.1162-32.5684Q42.6514-32.5684 41.5771-31.5308Q40.5029-30.4932 40.5029-29.0039L40.5029-19.4092Q40.1611-19.2871 39.7461-19.2261Q39.3311-19.165 38.9404-19.165Q37.0117-19.165 37.0117-21.1426L37.0117-30.6641Q37.0117-32.1533 35.9497-33.1543Q34.8877-34.1553 33.4229-34.1553Q31.9824-34.1553 30.9326-33.1543Q29.8828-32.1533 29.8828-30.6641L29.8828-24.2188Q29.541-24.0967 29.126-24.0356Q28.7109-23.9746 28.3203-23.9746Q26.3916-23.9746 26.3916-25.9521L26.3916-32.1777Q26.3916-33.6914 25.293-34.729Q24.1943-35.7666 22.7051-35.7666Q21.2402-35.7666 20.166-34.729Q19.0918-33.6914 19.0918-32.1777L19.0918-29.4189Q17.3096-29.4189 16.4062-30.9448Q15.5029-32.4707 15.5029-35.4248L15.5029-46.0205Q15.5029-53.5156 18.0786-58.7891Q20.6543-64.0625 25.5493-66.8701Q30.4443-69.6777 37.3535-69.6777Z"/>
  </g>
  <g id="Semibold-S" transform="matrix(1 0 0 1 2002.39 696)">
   <path d="M36.4937-77.906Q27.3338-77.906 20.6738-74.1375Q14.0137-70.369 10.4248-63.3881Q6.83594-56.4072 6.83594-46.7216L6.83594-36.6661Q6.83594-29.6997 10.1761-25.6294Q13.5162-21.5591 19.3573-21.4012Q20.2118-19.2062 22.1382-17.9466Q24.0646-16.687 26.6434-16.687Q28.1639-16.687 29.5578-17.1158Q30.5588-14.6767 32.4997-13.3171Q34.4406-11.9576 37.0728-11.9576Q37.5214-11.9576 37.962-12.0243Q38.4026-12.0911 38.8512-12.191L38.8512-1.91574Q38.8512 2.42081 41.4322 5.09071Q44.0132 7.76062 48.1392 7.76062Q52.3911 7.76062 55.011 5.09071Q57.6309 2.42081 57.6309-1.91574L57.6309-30.2666Q57.6309-30.6396 57.9079-30.6396Q58.1055-30.6396 58.2191-30.3932L59.713-27.0004Q60.8292-24.9413 62.598-23.8457Q64.3669-22.7501 66.5443-22.7501Q70.0638-22.7501 72.493-24.8882Q74.9222-27.0264 74.9222-30.764Q74.955-31.8466 74.7444-33.0952Q74.5338-34.3437 74.1295-35.4797L67.2562-54.5807Q63.0814-66.1499 55.3215-72.036Q47.5616-77.9221 36.4937-77.906ZM36.2335-69.8196Q44.4283-69.8196 50.3651-65.6593Q56.3019-61.499 59.9487-51.8707L67.1021-33.0704Q67.3813-32.3952 67.3813-31.7513Q67.3813-31.0432 66.8785-30.4996Q66.3757-29.9561 65.4877-29.9561Q64.2334-29.9561 63.623-31.3766L57.8972-43.1664Q57.1671-44.7289 56.0997-45.3445Q55.0323-45.9602 53.849-45.9602Q52.3468-45.9602 51.3016-44.894Q50.2563-43.8278 50.2563-42.057L50.2411-1.41449Q50.2411-0.541687 49.6727 0.0175476Q49.1043 0.576782 48.2323 0.576782Q47.3595 0.576782 46.809 0.0175476Q46.2585-0.541687 46.2585-1.41449L46.2585-29.715Q46.2585-31.0707 45.2488-31.9973Q44.239-32.9239 42.9161-32.9239Q41.5939-32.9239 40.6174-31.9973Q39.6408-31.0707 39.6408-29.715L39.6408-19.8624Q39.2639-19.696 38.7955-19.6129Q38.327-19.5297 37.883-19.5297Q35.643-19.5297 35.643-21.8536L35.643-31.3042Q35.643-32.6599 34.6565-33.5632Q33.67-34.4666 32.3479-34.4666Q31.0402-34.4666 30.0793-33.5632Q29.1183-32.6599 29.1183-31.3042L29.1183-24.5918Q28.7415-24.4255 28.273-24.3423Q27.8046-24.2592 27.3605-24.2592Q25.1205-24.2592 25.1205-26.5831L25.1205-32.7995Q25.1205-34.1713 24.1108-35.0979Q23.101-36.0245 21.7628-36.0245Q20.4407-36.0245 19.4641-35.0979Q18.4875-34.1713 18.4875-32.7995L18.4875-29.5166Q16.5009-29.5166 15.4644-31.3667Q14.4279-33.2169 14.4279-36.6776L14.4279-45.9579Q14.4279-53.5156 16.9991-58.8333Q19.5702-64.151 24.4518-66.9853Q29.3335-69.8196 36.2335-69.8196Z"/>
  </g>
  <g id="Medium-S" transform="matrix(1 0 0 1 1706.61 696)">
   <path d="M35.6377-77.1111Q26.8089-77.1111 20.3369-73.41Q13.8649-69.709 10.3504-62.8864Q6.83594-56.0638 6.83594-46.6614L6.83594-37.2185Q6.83594-30.3932 10.0616-26.458Q13.2874-22.5227 18.9667-22.4121Q19.7472-20.2377 21.579-18.9949Q23.4108-17.7521 25.9094-17.7521Q27.4902-17.7521 28.9787-18.2274Q29.9049-15.8089 31.8089-14.4459Q33.7128-13.0829 36.3045-13.0829Q36.834-13.0829 37.3589-13.163Q37.8838-13.2431 38.4132-13.3636L38.4132-2.16522Q38.4132 1.94244 40.8596 4.47083Q43.306 6.99921 47.2092 6.99921Q51.2047 6.99921 53.6732 4.47083Q56.1417 1.94244 56.1417-2.16522L56.1417-31.6681Q56.1417-32.0274 56.4255-32.0274Q56.6437-32.0274 56.7497-31.7612L58.5068-27.7214Q59.5627-25.5814 61.2843-24.4419Q63.0058-23.3025 65.1497-23.3025Q68.4128-23.3025 70.7306-25.2758Q73.0484-27.2491 73.0484-30.7838Q73.0888-31.8001 72.8848-33.0044Q72.6807-34.2087 72.3038-35.318L65.5312-54.203Q61.4304-65.6044 53.923-71.3623Q46.4157-77.1202 35.6377-77.1111ZM35.3844-69.928Q43.4982-69.928 49.4755-65.8249Q55.4527-61.7218 59.1064-51.8646L66.037-33.1917Q66.3437-32.4493 66.3437-31.7245Q66.3437-30.9425 65.7837-30.3379Q65.2237-29.7333 64.2548-29.7333Q62.8456-29.7333 62.1613-31.3431L56.6101-43.0382Q55.9006-44.6007 54.8935-45.1931Q53.8864-45.7855 52.7512-45.7855Q51.3496-45.7855 50.4189-44.7899Q49.4881-43.7943 49.4881-42.1982L49.4797-1.69067Q49.4797-0.730133 48.8506-0.117111Q48.2216 0.495911 47.2618 0.495911Q46.302 0.495911 45.7043-0.117111Q45.1065-0.730133 45.1065-1.69067L45.1065-30.2536Q45.1065-31.5086 44.1639-32.3509Q43.2213-33.1932 42.0067-33.1932Q40.7921-33.1932 39.8895-32.3509Q38.987-31.5086 38.987-30.2536L38.987-20.2065Q38.5826-20.0058 38.0741-19.9059Q37.5656-19.8059 37.0811-19.8059Q34.6054-19.8059 34.6054-22.3923L34.6054-31.7894Q34.6054-33.0437 33.6761-33.873Q32.7469-34.7023 31.5323-34.7023Q30.3261-34.7023 29.4327-33.873Q28.5393-33.0437 28.5393-31.7894L28.5393-24.8749Q28.1349-24.675 27.626-24.5747Q27.1172-24.4743 26.6327-24.4743Q24.157-24.4743 24.157-27.0615L24.157-33.2718Q24.157-34.5352 23.2147-35.3775Q22.2725-36.2198 21.0487-36.2198Q19.8341-36.2198 18.9316-35.3775Q18.029-34.5352 18.029-33.2718L18.029-29.5906Q15.8875-29.5906 14.7499-31.6868Q13.6124-33.783 13.6124-37.6282L13.6124-45.9114Q13.6124-53.5156 16.18-58.8673Q18.7477-64.2189 23.6195-67.0734Q28.4912-69.928 35.3844-69.928Z"/>
  </g>
  <g id="Regular-S" transform="matrix(1 0 0 1 1411.12 696)">
   <path d="M34.5215-76.0742Q26.123-76.0742 19.8975-72.4609Q13.6719-68.8477 10.2539-62.2314Q6.83594-55.6152 6.83594-46.582L6.83594-37.9395Q6.83594-31.2988 9.91211-27.5391Q12.9883-23.7793 18.457-23.7305Q19.1406-21.582 20.8496-20.3613Q22.5586-19.1406 24.9512-19.1406Q26.6113-19.1406 28.2227-19.6777Q29.0527-17.2852 30.9082-15.918Q32.7637-14.5508 35.3027-14.5508Q35.9375-14.5508 36.5723-14.6484Q37.207-14.7461 37.8418-14.8926L37.8418-2.49023Q37.8418 1.31836 40.1123 3.66211Q42.3828 6.00586 45.9961 6.00586Q49.6582 6.00586 51.9287 3.66211Q54.1992 1.31836 54.1992-2.49023L54.1992-33.4961Q54.1992-33.8379 54.4922-33.8379Q54.7363-33.8379 54.834-33.5449L56.9336-28.6621Q57.9102-26.416 59.5703-25.2197Q61.2305-24.0234 63.3301-24.0234Q66.2598-24.0234 68.4326-25.7812Q70.6055-27.5391 70.6055-30.8105Q70.6543-31.7383 70.459-32.8857Q70.2637-34.0332 69.9219-35.1074L63.2812-53.7109Q59.2773-64.8926 52.0996-70.4834Q44.9219-76.0742 34.5215-76.0742ZM34.2773-70.0684Q42.2852-70.0684 48.3154-66.04Q54.3457-62.0117 58.0078-51.8555L64.6484-33.3496Q64.9902-32.5195 64.9902-31.6895Q64.9902-30.8105 64.3555-30.127Q63.7207-29.4434 62.6465-29.4434Q61.0352-29.4434 60.2539-31.2988L54.9316-42.8711Q54.248-44.4336 53.3203-44.9951Q52.3926-45.5566 51.3184-45.5566Q50.0488-45.5566 49.2676-44.6533Q48.4863-43.75 48.4863-42.3828L48.4863-2.05078Q48.4863-0.976562 47.7783-0.292969Q47.0703 0.390625 45.9961 0.390625Q44.9219 0.390625 44.2627-0.292969Q43.6035-0.976562 43.6035-2.05078L43.6035-30.957Q43.6035-32.0801 42.749-32.8125Q41.8945-33.5449 40.8203-33.5449Q39.7461-33.5449 38.9404-32.8125Q38.1348-32.0801 38.1348-30.957L38.1348-20.6543Q37.6953-20.4102 37.1338-20.2881Q36.5723-20.166 36.0352-20.166Q33.252-20.166 33.252-23.0957L33.252-32.4219Q33.252-33.5449 32.3975-34.2773Q31.543-35.0098 30.4688-35.0098Q29.3945-35.0098 28.5889-34.2773Q27.7832-33.5449 27.7832-32.4219L27.7832-25.2441Q27.3438-25 26.7822-24.8779Q26.2207-24.7559 25.6836-24.7559Q22.9004-24.7559 22.9004-27.6855L22.9004-33.8867Q22.9004-35.0098 22.0459-35.7422Q21.1914-36.4746 20.1172-36.4746Q19.043-36.4746 18.2373-35.7422Q17.4316-35.0098 17.4316-33.8867L17.4316-29.6875Q15.0879-29.6875 13.8184-32.1045Q12.5488-34.5215 12.5488-38.8672L12.5488-45.8496Q12.5488-53.5156 15.1123-58.9111Q17.6758-64.3066 22.5342-67.1875Q27.3926-70.0684 34.2773-70.0684Z"/>
  </g>
  <g id="Light-S" transform="matrix(1 0 0 1 1115.62 696)">
   <path d="M33.326-74.6666Q25.4723-74.6666 19.4965-71.3257Q13.5208-67.9848 10.1784-61.6714Q6.83594-55.3581 6.83594-46.4455L6.83594-38.4087Q6.83594-31.7833 9.71527-28.1445Q12.5946-24.5056 17.8368-24.4568Q18.4746-22.3846 20.1153-21.1788Q21.756-19.973 24.1188-19.973Q25.779-19.973 27.5116-20.5559Q28.2356-18.3144 29.985-17.0155Q31.7345-15.7166 34.1827-15.7166Q34.8778-15.7166 35.5957-15.8367Q36.3136-15.9569 37.0247-16.1491L37.0247-3.20129Q37.0247 0.304413 39.1132 2.41356Q41.2018 4.52271 44.3916 4.52271Q47.6601 4.52271 49.7414 2.41356Q51.8227 0.304413 51.8227-3.20129L51.8227-35.8574Q51.8227-36.1992 52.1156-36.1992Q52.3598-36.1992 52.4727-35.891L55.4047-28.7682Q56.3362-26.5671 57.9281-25.4238Q59.52-24.2805 61.4532-24.2653Q64.1861-24.2653 66.1922-25.9323Q68.1984-27.5993 68.1984-30.629Q68.2175-31.4507 68.0447-32.4543Q67.8719-33.4579 67.5758-34.3964L60.7231-53.6507Q57.0221-64.0602 50.132-69.3634Q43.2419-74.6666 33.326-74.6666ZM33.1573-70.0081Q41.2102-70.0081 47.1874-65.8207Q53.1647-61.6333 56.5544-52.1584L63.3766-32.9712Q63.7337-32.0656 63.7337-31.16Q63.7337-30.1292 62.978-29.3472Q62.2223-28.5652 61.0115-28.5652Q59.1583-28.5652 58.2405-30.7838L53.0853-42.4927Q52.5223-43.8278 51.7082-44.3367Q50.8942-44.8456 49.9107-44.8456Q48.7625-44.8456 48.0267-44.0556Q47.2908-43.2655 47.2908-42.0044L47.2908-2.89841Q47.2908-1.55182 46.4844-0.709152Q45.6779 0.133514 44.3916 0.133514Q43.0901 0.133514 42.3325-0.709152Q41.5749-1.55182 41.5749-2.89841L41.5749-30.7152Q41.5749-31.6414 40.9172-32.2678Q40.2596-32.8941 39.3669-32.8941Q38.4598-32.8941 37.8433-32.2678Q37.2269-31.6414 37.2269-30.7152L37.2269-20.639Q36.6661-20.3796 36.0062-20.2427Q35.3462-20.1057 34.7488-20.1057Q31.4964-20.1057 31.4964-23.6252L31.4964-32.1648Q31.4964-33.1665 30.8235-33.7627Q30.1506-34.359 29.2877-34.359Q28.4409-34.359 27.7943-33.7627Q27.1477-33.1665 27.1477-32.1648L27.1477-24.9115Q26.5869-24.6368 25.9346-24.4995Q25.2823-24.3622 24.6849-24.3622Q21.4325-24.3622 21.4325-27.8824L21.4325-33.6296Q21.4325-34.6313 20.7596-35.2276Q20.0867-35.8238 19.2238-35.8238Q18.3769-35.8238 17.7227-35.2276Q17.0685-34.6313 17.0685-33.6296L17.0685-29.097Q14.3005-29.097 12.8269-31.6807Q11.3533-34.2644 11.3533-39.0335L11.3533-45.9404Q11.3533-53.7125 14.0224-59.0626Q16.6916-64.4127 21.5881-67.2104Q26.4847-70.0081 33.1573-70.0081Z"/>
  </g>
  <g id="Thin-S" transform="matrix(1 0 0 1 820.496 696)">
   <path d="M31.7444-72.805Q24.6117-72.805 18.9659-69.8246Q13.3202-66.8442 10.078-60.931Q6.83594-55.0179 6.83594-46.2654L6.83594-39.0289Q6.83594-32.4242 9.45511-28.9455Q12.0743-25.4669 17.0158-25.4181Q17.5941-23.4451 19.1448-22.2595Q20.6955-21.0739 23.0179-21.0739Q24.678-21.0739 26.5701-21.7171Q27.1545-19.6754 28.764-18.4666Q30.3734-17.2577 32.7011-17.2577Q33.477-17.2577 34.3048-17.408Q35.1326-17.5583 35.9436-17.8101L35.9436-4.14276Q35.9436-1.03683 37.7922 0.761795Q39.6408 2.56042 42.2699 2.56042Q45.018 2.56042 46.8491 0.761795Q48.6801-1.03683 48.6801-4.14276L48.6801-38.9801Q48.6801-39.3219 48.9731-39.3219Q49.2172-39.3219 49.35-38.9938L53.3829-28.9085Q54.2542-26.7677 55.756-25.6943Q57.2578-24.6208 58.9706-24.5857Q61.4433-24.5857 63.2298-26.1326Q65.0162-27.6794 65.0162-30.3886Q64.994-31.0707 64.8518-31.884Q64.7095-32.6973 64.473-33.4549L57.3402-53.5706Q54.039-62.9593 47.5292-67.8822Q41.0194-72.805 31.7444-72.805ZM31.6757-69.928Q39.7888-69.928 45.6963-65.5304Q51.6037-61.1328 54.6333-52.5589L61.6951-32.4707Q62.0728-31.4651 62.0728-30.4588Q62.0728-29.2282 61.1565-28.3161Q60.2402-27.404 58.8501-27.404Q56.6757-27.404 55.5786-30.1033L50.6424-41.9922Q50.2403-43.0275 49.5762-43.4658Q48.912-43.9041 48.0492-43.9041Q47.0604-43.9041 46.3848-43.2648Q45.7092-42.6254 45.7092-41.5039L45.7092-4.01917Q45.7092-2.31247 44.7727-1.25961Q43.8362-0.206757 42.2699-0.206757Q40.6685-0.206757 39.7808-1.25961Q38.8931-2.31247 38.8931-4.01917L38.8931-30.3947Q38.8931-31.0608 38.4956-31.5472Q38.0981-32.0335 37.4458-32.0335Q36.7577-32.0335 36.3914-31.5472Q36.0252-31.0608 36.0252-30.3947L36.0252-20.6192Q35.305-20.34 34.515-20.1828Q33.725-20.0256 33.0467-20.0256Q29.174-20.0256 29.174-24.3263L29.174-31.8245Q29.174-32.666 28.7415-33.0822Q28.3089-33.4984 27.7267-33.4984Q27.1797-33.4984 26.7433-33.0822Q26.3069-32.666 26.3069-31.8245L26.3069-24.4705Q25.5859-24.1562 24.8135-23.999Q24.041-23.8419 23.3635-23.8419Q19.4901-23.8419 19.4901-28.1425L19.4901-33.2893Q19.4901-34.1309 19.0575-34.547Q18.6249-34.9632 18.0428-34.9632Q17.4965-34.9632 17.0422-34.547Q16.5878-34.1309 16.5878-33.2893L16.5878-28.3165Q13.2599-28.3165 11.5158-31.1203Q9.77173-33.9241 9.77173-39.254L9.77173-46.0602Q9.77173-53.9726 12.5813-59.2628Q15.3908-64.5531 20.3369-67.2405Q25.2831-69.928 31.6757-69.928Z"/>
  </g>
  <g id="Ultralight-S" transform="matrix(1 0 0 1 524.6 696)">
   <path d="M30.9341-71.8513Q24.1707-71.8513 18.6943-69.0552Q13.2179-66.259 10.0269-60.5511Q6.83594-54.8431 6.83594-46.1731L6.83594-39.3471Q6.83594-32.7522 9.32159-29.3556Q11.8073-25.959 16.5955-25.9102Q17.1425-23.9891 18.647-22.8138Q20.1515-21.6385 22.4533-21.6385Q24.1135-21.6385 26.0887-22.3114Q26.6006-20.3728 28.1384-19.2101Q29.6761-18.0473 31.9427-18.0473Q32.7591-18.0473 33.6433-18.2133Q34.5276-18.3792 35.3897-18.6615L35.3897-4.62418Q35.3897-1.72424 37.1151-0.0843048Q38.8405 1.55563 41.1827 1.55563Q43.6638 1.55563 45.3667-0.0843048Q47.0695-1.72424 47.0695-4.62418L47.0695-40.58Q47.0695-40.9218 47.3625-40.9218Q47.6067-40.9218 47.7501-40.5838L52.3476-28.9803Q53.1876-26.87 54.6432-25.8327Q56.0989-24.7955 57.6996-24.7498Q60.0388-24.7498 61.7119-26.2352Q63.385-27.7206 63.385-30.2658Q63.343-30.8754 63.216-31.5914Q63.089-32.3074 62.883-32.9735L55.6068-53.5294Q52.5116-62.3947 46.1964-67.123Q39.8811-71.8513 30.9341-71.8513ZM30.9174-69.8868Q39.061-69.8868 44.9322-65.3816Q50.8034-60.8765 53.6484-52.7634L60.8337-32.2144Q61.2213-31.1569 61.2213-30.1003Q61.2213-28.7674 60.2234-27.7885Q59.2255-26.8097 57.7423-26.8097Q55.4047-26.8097 54.2145-29.7546L49.3919-41.7358Q49.0715-42.617 48.4844-43.0199Q47.8973-43.4227 47.0955-43.4227Q46.1891-43.4227 45.5441-42.8596Q44.899-42.2966 44.899-41.2476L44.899-4.59366Q44.899-2.70233 43.8957-1.5419Q42.8925-0.38147 41.1827-0.38147Q39.4272-0.38147 38.4727-1.5419Q37.5183-2.70233 37.5183-4.59366L37.5183-30.2307Q37.5183-30.7632 37.2543-31.1779Q36.9904-31.5926 36.4609-31.5926Q35.8864-31.5926 35.6483-31.1779Q35.4103-30.7632 35.4103-30.2307L35.4103-20.6085Q34.6077-20.3194 33.7509-20.1519Q32.8941-19.9844 32.1754-19.9844Q27.9846-19.9844 27.9846-24.6849L27.9846-31.6498Q27.9846-32.4097 27.6749-32.7335Q27.3651-33.0574 26.9264-33.0574Q26.5335-33.0574 26.2047-32.7335Q25.8759-32.4097 25.8759-31.6498L25.8759-24.2455Q25.0732-23.9105 24.2393-23.7427Q23.4055-23.5748 22.6868-23.5748Q18.4959-23.5748 18.4959-28.2761L18.4959-33.1146Q18.4959-33.8745 18.1862-34.1984Q17.8764-34.5222 17.4377-34.5222Q17.0448-34.5222 16.6935-34.1984Q16.3422-33.8745 16.3422-33.1146L16.3422-27.9167Q12.7266-27.9167 10.844-30.8331Q8.96149-33.7494 8.96149-39.3669L8.96149-46.122Q8.96149-54.1061 11.8427-59.3655Q14.724-64.6248 19.696-67.2558Q24.6681-69.8868 30.9174-69.8868Z"/>
  </g>
 </g>
</svg>
